<?xml version="1.0" encoding="UTF-8"?>
<!DOCTYPE svg PUBLIC "-//W3C//DTD SVG 1.1//EN" "http://www.w3.org/Graphics/SVG/1.1/DTD/svg11.dtd">
<svg xmlns="http://www.w3.org/2000/svg" version="1.1" width="512px" height="512px" style="shape-rendering:geometricPrecision; text-rendering:geometricPrecision; image-rendering:optimizeQuality; fill-rule:evenodd; clip-rule:evenodd" xmlns:xlink="http://www.w3.org/1999/xlink">
<g><path style="opacity:0.995" fill="#04c8d7" d="M 232.5,-0.5 C 247.833,-0.5 263.167,-0.5 278.5,-0.5C 376.233,11.9285 446.733,62.2618 490,150.5C 501.396,176.499 508.563,203.499 511.5,231.5C 511.5,240.5 511.5,249.5 511.5,258.5C 474.786,222.118 438.119,185.785 401.5,149.5C 396.296,140.467 388.63,134.634 378.5,132C 312.501,131.5 246.501,131.333 180.5,131.5C 164.497,131.333 148.497,131.5 132.5,132C 118.595,136.239 109.762,145.406 106,159.5C 105.5,168.494 105.334,177.494 105.5,186.5C 105.333,240.501 105.5,294.501 106,348.5C 107.844,360.211 113.677,369.211 123.5,375.5C 123.062,375.435 122.728,375.601 122.5,376C 167.701,421.035 212.701,466.201 257.5,511.5C 249.5,511.5 241.5,511.5 233.5,511.5C 141.787,500.41 73.287,454.743 28,374.5C 12.2795,343.519 2.77948,310.853 -0.5,276.5C -0.5,262.5 -0.5,248.5 -0.5,234.5C 9.80282,144.029 54.1362,75.8619 132.5,30C 163.968,13.3058 197.302,3.13909 232.5,-0.5 Z"/></g>
<g><path style="opacity:1" fill="#434141" d="M 180.5,131.5 C 175.916,138.332 171.583,145.332 167.5,152.5C 160.647,149.017 156.313,151.017 154.5,158.5C 154.695,161.218 155.695,163.551 157.5,165.5C 152.905,172.36 148.572,179.36 144.5,186.5C 131.5,186.5 118.5,186.5 105.5,186.5C 105.334,177.494 105.5,168.494 106,159.5C 109.762,145.406 118.595,136.239 132.5,132C 148.497,131.5 164.497,131.333 180.5,131.5 Z"/></g>
<g><path style="opacity:1" fill="#232121" d="M 180.5,131.5 C 246.501,131.333 312.501,131.5 378.5,132C 388.63,134.634 396.296,140.467 401.5,149.5C 402.651,152.474 403.817,155.474 405,158.5C 405.5,167.827 405.666,177.161 405.5,186.5C 318.5,186.5 231.5,186.5 144.5,186.5C 148.572,179.36 152.905,172.36 157.5,165.5C 164.305,168.098 168.638,165.931 170.5,159C 170.16,156.489 169.16,154.322 167.5,152.5C 171.583,145.332 175.916,138.332 180.5,131.5 Z"/></g>
<g><path style="opacity:1" fill="#f9f9f9" d="M 222.5,146.5 C 258.835,146.333 295.168,146.5 331.5,147C 340.35,151.211 342.516,157.711 338,166.5C 336.269,168.617 334.102,170.117 331.5,171C 295.833,171.667 260.167,171.667 224.5,171C 216.715,167.672 213.882,161.839 216,153.5C 217.694,150.642 219.861,148.309 222.5,146.5 Z"/></g>
<g><path style="opacity:1" fill="#f4f4f4" d="M 368.5,147.5 C 374.136,150.284 377.636,154.617 379,160.5C 375.63,163.535 372.63,166.868 370,170.5C 369.097,169.299 367.931,168.465 366.5,168C 368.874,165.961 370.874,163.628 372.5,161C 367.511,160.501 362.511,160.334 357.5,160.5C 357.5,159.167 357.5,157.833 357.5,156.5C 362.511,156.666 367.511,156.499 372.5,156C 369.029,153.906 367.696,151.073 368.5,147.5 Z"/></g>
<g><path style="opacity:1" fill="#da4544" d="M 135.5,151.5 C 139.257,151.071 142.757,151.737 146,153.5C 149.215,162.58 146.048,166.747 136.5,166C 131.577,161.456 131.244,156.623 135.5,151.5 Z"/></g>
<g><path style="opacity:1" fill="#f49f24" d="M 182.5,150.5 C 189.857,150.684 193.024,154.351 192,161.5C 189.774,165.861 186.274,167.361 181.5,166C 174.754,160.512 175.088,155.346 182.5,150.5 Z"/></g>
<g><path style="opacity:1" fill="#01b2bf" d="M 401.5,149.5 C 438.119,185.785 474.786,222.118 511.5,258.5C 511.5,265.5 511.5,272.5 511.5,279.5C 502.115,359.805 464.449,422.972 398.5,469C 361.869,492.821 321.869,506.987 278.5,511.5C 271.5,511.5 264.5,511.5 257.5,511.5C 212.701,466.201 167.701,421.035 122.5,376C 122.728,375.601 123.062,375.435 123.5,375.5C 126.479,376.654 129.479,377.82 132.5,379C 213.833,379.667 295.167,379.667 376.5,379C 392.91,375.257 402.41,365.091 405,348.5C 405.5,294.501 405.667,240.501 405.5,186.5C 405.666,177.161 405.5,167.827 405,158.5C 403.817,155.474 402.651,152.474 401.5,149.5 Z"/></g>
<g><path style="opacity:1" fill="#18c2d0" d="M 167.5,152.5 C 169.16,154.322 170.16,156.489 170.5,159C 168.638,165.931 164.305,168.098 157.5,165.5C 155.695,163.551 154.695,161.218 154.5,158.5C 156.313,151.017 160.647,149.017 167.5,152.5 Z"/></g>
<g><path style="opacity:1" fill="#1c1c1c" d="M 257.5,153.5 C 259.34,155.659 260.507,158.325 261,161.5C 261.567,158.832 262.067,156.166 262.5,153.5C 263.5,153.5 264.5,153.5 265.5,153.5C 265.933,156.166 266.433,158.832 267,161.5C 267.27,158.638 268.104,155.972 269.5,153.5C 269.833,154 270.167,154.5 270.5,155C 269.434,158.094 268.768,161.26 268.5,164.5C 267.325,164.719 266.325,164.386 265.5,163.5C 264.787,161.224 264.287,158.891 264,156.5C 263.685,159.636 262.518,162.303 260.5,164.5C 258.722,161.054 257.722,157.387 257.5,153.5 Z"/></g>
<g><path style="opacity:1" fill="#222222" d="M 242.5,153.5 C 243.75,153.577 244.583,154.244 245,155.5C 245.333,157.5 245.667,159.5 246,161.5C 246.822,158.883 247.322,156.216 247.5,153.5C 248.675,153.281 249.675,153.614 250.5,154.5C 251.213,156.776 251.713,159.109 252,161.5C 252.526,158.728 253.359,156.062 254.5,153.5C 254.833,154.167 255.167,154.833 255.5,155.5C 254.672,158.479 254.005,161.479 253.5,164.5C 252.5,164.5 251.5,164.5 250.5,164.5C 249.506,153.85 248.506,153.85 247.5,164.5C 246.5,164.5 245.5,164.5 244.5,164.5C 244.089,160.779 243.422,157.112 242.5,153.5 Z"/></g>
<g><path style="opacity:1" fill="#2d2d2d" d="M 227.5,154.5 C 227.56,153.957 227.893,153.624 228.5,153.5C 229.684,155.046 230.684,156.713 231.5,158.5C 232.065,156.49 233.065,154.824 234.5,153.5C 235.868,155.637 236.868,157.97 237.5,160.5C 237.976,157.816 238.976,155.483 240.5,153.5C 240.833,154 241.167,154.5 241.5,155C 240.27,157.753 239.27,160.587 238.5,163.5C 237.833,164.833 237.167,164.833 236.5,163.5C 235.068,156.937 233.901,156.937 233,163.5C 232.282,164.451 231.449,164.617 230.5,164C 229.233,160.812 228.233,157.645 227.5,154.5 Z"/></g>
<g><path style="opacity:1" fill="#202020" d="M 271.5,162.5 C 273.337,162.639 273.67,163.306 272.5,164.5C 271.702,164.043 271.369,163.376 271.5,162.5 Z"/></g>
<g><path style="opacity:1" fill="#fefefe" d="M 105.5,186.5 C 118.5,186.5 131.5,186.5 144.5,186.5C 231.5,186.5 318.5,186.5 405.5,186.5C 405.667,240.501 405.5,294.501 405,348.5C 402.41,365.091 392.91,375.257 376.5,379C 295.167,379.667 213.833,379.667 132.5,379C 129.479,377.82 126.479,376.654 123.5,375.5C 113.677,369.211 107.844,360.211 106,348.5C 105.5,294.501 105.333,240.501 105.5,186.5 Z"/></g>
<g><path style="opacity:1" fill="#1ac7a3" d="M 265.5,223.5 C 270.844,223.334 276.177,223.501 281.5,224C 269.957,261.338 258.957,298.838 248.5,336.5C 243.167,336.5 237.833,336.5 232.5,336.5C 242.896,298.647 253.896,260.981 265.5,223.5 Z"/></g>
<g><path style="opacity:1" fill="#1ac7a4" d="M 218.5,247.5 C 220.45,252.735 221.117,258.402 220.5,264.5C 201.3,272.097 182.3,280.264 163.5,289C 182.284,296.892 200.95,305.058 219.5,313.5C 220.833,319.167 220.833,324.833 219.5,330.5C 195.287,318.893 170.954,307.56 146.5,296.5C 145.167,291.5 145.167,286.5 146.5,281.5C 170.591,270.119 194.591,258.785 218.5,247.5 Z"/></g>
<g><path style="opacity:1" fill="#1ac7a4" d="M 290.5,247.5 C 315.264,258.381 339.931,269.547 364.5,281C 365.833,286.333 365.833,291.667 364.5,297C 340.04,307.876 315.707,319.043 291.5,330.5C 290.167,324.833 290.167,319.167 291.5,313.5C 310.5,305.333 329.5,297.167 348.5,289C 329.334,280.337 310.001,272.17 290.5,264.5C 290.5,258.833 290.5,253.167 290.5,247.5 Z"/></g>
</svg>
