<?xml version="1.0" encoding="UTF-8"?>
<!DOCTYPE svg PUBLIC "-//W3C//DTD SVG 1.1//EN" "http://www.w3.org/Graphics/SVG/1.1/DTD/svg11.dtd">
<svg xmlns="http://www.w3.org/2000/svg" version="1.1" width="494px" height="370px" style="shape-rendering:geometricPrecision; text-rendering:geometricPrecision; image-rendering:optimizeQuality; fill-rule:evenodd; clip-rule:evenodd" xmlns:xlink="http://www.w3.org/1999/xlink">
<g><path style="opacity:1" fill="#fefefe" d="M -0.5,-0.5 C 164.167,-0.5 328.833,-0.5 493.5,-0.5C 493.5,122.833 493.5,246.167 493.5,369.5C 328.833,369.5 164.167,369.5 -0.5,369.5C -0.5,246.167 -0.5,122.833 -0.5,-0.5 Z"/></g>
<g><path style="opacity:1" fill="#154f97" d="M 200.5,149.5 C 215.56,152.226 223.56,161.226 224.5,176.5C 224.646,190.181 218.313,199.348 205.5,204C 194.898,205.403 184.231,205.903 173.5,205.5C 173.5,203.5 173.5,201.5 173.5,199.5C 177.83,198.053 182.163,196.386 186.5,194.5C 205.896,197.597 213.729,189.264 210,169.5C 208.653,165.656 206.153,162.989 202.5,161.5C 202.668,157.342 202.002,153.342 200.5,149.5 Z"/></g>
<g><path style="opacity:1" fill="#114f97" d="M 243.5,149.5 C 248.43,149.197 253.263,149.531 258,150.5C 265.41,168.646 272.243,186.98 278.5,205.5C 274.486,205.666 270.486,205.499 266.5,205C 264.359,201.425 262.693,197.591 261.5,193.5C 254.167,192.167 246.833,192.167 239.5,193.5C 238.307,197.591 236.641,201.425 234.5,205C 230.514,205.499 226.514,205.666 222.5,205.5C 229.105,186.685 236.105,168.019 243.5,149.5 Z"/></g>
<g><path style="opacity:1" fill="#0e4e97" d="M 271.5,149.5 C 286.5,149.5 301.5,149.5 316.5,149.5C 316.5,152.833 316.5,156.167 316.5,159.5C 311.167,159.5 305.833,159.5 300.5,159.5C 300.5,174.833 300.5,190.167 300.5,205.5C 296.167,205.5 291.833,205.5 287.5,205.5C 287.5,190.167 287.5,174.833 287.5,159.5C 282.167,159.5 276.833,159.5 271.5,159.5C 271.5,156.167 271.5,152.833 271.5,149.5 Z"/></g>
<g><path style="opacity:1" fill="#124f97" d="M 330.5,149.5 C 335.43,149.197 340.263,149.531 345,150.5C 352.537,168.616 359.37,186.949 365.5,205.5C 361.486,205.666 357.486,205.499 353.5,205C 351.359,201.425 349.693,197.591 348.5,193.5C 341.197,192.503 333.863,192.169 326.5,192.5C 325.906,197.12 324.239,201.287 321.5,205C 317.514,205.499 313.514,205.666 309.5,205.5C 316.105,186.685 323.105,168.019 330.5,149.5 Z"/></g>
<g><path style="opacity:1" fill="#f7f5f8" d="M 202.5,161.5 C 206.153,162.989 208.653,165.656 210,169.5C 213.729,189.264 205.896,197.597 186.5,194.5C 197.98,186.538 203.313,175.538 202.5,161.5 Z"/></g>
<g><path style="opacity:1" fill="#f2f5f9" d="M 344.5,182.5 C 340.03,183.486 335.363,183.819 330.5,183.5C 332.113,176.16 334.613,169.16 338,162.5C 340.673,169.019 342.84,175.686 344.5,182.5 Z"/></g>
<g><path style="opacity:1" fill="#f1f4f9" d="M 257.5,182.5 C 252.833,183.833 248.167,183.833 243.5,182.5C 245.63,175.444 247.963,168.444 250.5,161.5C 253.436,168.308 255.769,175.308 257.5,182.5 Z"/></g>
<g><path style="opacity:1" fill="#6b93c0" d="M 243.5,182.5 C 248.167,183.833 252.833,183.833 257.5,182.5C 258.043,182.56 258.376,182.893 258.5,183.5C 253.167,184.833 247.833,184.833 242.5,183.5C 242.624,182.893 242.957,182.56 243.5,182.5 Z"/></g>
<g><path style="opacity:1" fill="#6f96c1" d="M 344.5,182.5 C 345.043,182.56 345.376,182.893 345.5,183.5C 340.348,184.814 335.348,184.814 330.5,183.5C 335.363,183.819 340.03,183.486 344.5,182.5 Z"/></g>
<g><path style="opacity:1" fill="#9f2639" d="M 200.5,149.5 C 202.002,153.342 202.668,157.342 202.5,161.5C 203.313,175.538 197.98,186.538 186.5,194.5C 182.163,196.386 177.83,198.053 173.5,199.5C 162.98,201.157 153.48,198.824 145,192.5C 143.941,192.63 143.108,193.13 142.5,194C 143.731,195.183 143.731,196.349 142.5,197.5C 139.683,199.817 137.016,202.317 134.5,205C 133.5,205.667 132.5,205.667 131.5,205C 129.667,203.167 127.833,201.333 126,199.5C 125.333,198.5 125.333,197.5 126,196.5C 128.833,193.667 131.667,190.833 134.5,188C 135.549,187.508 136.549,187.674 137.5,188.5C 138.5,188.167 139.167,187.5 139.5,186.5C 129.864,173.06 129.031,159.06 137,144.5C 146.11,131.347 158.61,126.181 174.5,129C 186.276,131.948 194.942,138.781 200.5,149.5 Z"/></g>
<g><path style="opacity:1" fill="#839bc6" d="M 195.5,148.5 C 195.5,148.833 195.5,149.167 195.5,149.5C 195.328,153.971 194.494,154.304 193,150.5C 192.517,151.448 192.351,152.448 192.5,153.5C 191.5,153.5 190.5,153.5 189.5,153.5C 189.167,149.5 188.833,149.5 188.5,153.5C 187.5,153.5 186.5,153.5 185.5,153.5C 185.404,149.689 184.738,149.689 183.5,153.5C 182.749,152.624 182.249,151.624 182,150.5C 181.19,154.857 180.524,159.19 180,163.5C 179.219,162.271 178.719,160.938 178.5,159.5C 179.073,157.646 179.407,155.813 179.5,154C 178.929,152.795 178.262,151.628 177.5,150.5C 177.002,151.603 176.669,152.603 176.5,153.5C 175.749,152.624 175.249,151.624 175,150.5C 174.506,152.134 174.34,153.801 174.5,155.5C 175.5,155.5 176.5,155.5 177.5,155.5C 177.5,156.5 177.5,157.5 177.5,158.5C 176.5,158.5 175.5,158.5 174.5,158.5C 174.334,165.841 174.5,173.174 175,180.5C 175.667,179.167 176.333,179.167 177,180.5C 177.483,181.448 177.649,182.448 177.5,183.5C 176.325,183.281 175.325,183.614 174.5,184.5C 174.938,185.506 175.604,185.506 176.5,184.5C 177.429,185.689 177.762,187.022 177.5,188.5C 176.5,188.5 175.5,188.5 174.5,188.5C 174.5,190.833 174.5,193.167 174.5,195.5C 173.833,195.5 173.167,195.5 172.5,195.5C 172.333,180.163 172.5,164.83 173,149.5C 180.413,148.519 187.913,148.186 195.5,148.5 Z"/></g>
<g><path style="opacity:1" fill="#edeff6" d="M 195.5,149.5 C 197.008,151.181 198.008,153.181 198.5,155.5C 197.732,156.263 197.232,157.263 197,158.5C 196.411,156.137 194.911,155.137 192.5,155.5C 192.404,159.311 191.738,159.311 190.5,155.5C 190.167,156.167 189.833,156.833 189.5,157.5C 188.476,156.147 187.143,155.48 185.5,155.5C 185.462,162.041 184.796,162.041 183.5,155.5C 182.52,158.086 182.187,160.753 182.5,163.5C 183.675,163.281 184.675,163.614 185.5,164.5C 185.062,165.506 184.396,165.506 183.5,164.5C 182.571,165.689 182.238,167.022 182.5,168.5C 183.5,168.5 184.5,168.5 185.5,168.5C 185.666,172.514 185.499,176.514 185,180.5C 184.586,180.043 184.086,179.709 183.5,179.5C 183.167,180.667 182.833,181.833 182.5,183C 182.733,185.252 183.067,187.085 183.5,188.5C 184.298,186.922 184.798,185.256 185,183.5C 185.497,185.81 185.663,188.143 185.5,190.5C 184.486,191.674 183.153,192.34 181.5,192.5C 181.585,191.005 180.919,190.005 179.5,189.5C 178.548,191.045 178.215,192.712 178.5,194.5C 177.041,194.433 175.708,194.766 174.5,195.5C 174.5,193.167 174.5,190.833 174.5,188.5C 175.5,188.5 176.5,188.5 177.5,188.5C 177.762,187.022 177.429,185.689 176.5,184.5C 175.604,185.506 174.938,185.506 174.5,184.5C 175.325,183.614 176.325,183.281 177.5,183.5C 177.649,182.448 177.483,181.448 177,180.5C 176.333,179.167 175.667,179.167 175,180.5C 174.5,173.174 174.334,165.841 174.5,158.5C 175.5,158.5 176.5,158.5 177.5,158.5C 177.5,157.5 177.5,156.5 177.5,155.5C 176.5,155.5 175.5,155.5 174.5,155.5C 174.34,153.801 174.506,152.134 175,150.5C 175.249,151.624 175.749,152.624 176.5,153.5C 176.669,152.603 177.002,151.603 177.5,150.5C 178.262,151.628 178.929,152.795 179.5,154C 179.407,155.813 179.073,157.646 178.5,159.5C 178.719,160.938 179.219,162.271 180,163.5C 180.524,159.19 181.19,154.857 182,150.5C 182.249,151.624 182.749,152.624 183.5,153.5C 184.738,149.689 185.404,149.689 185.5,153.5C 186.5,153.5 187.5,153.5 188.5,153.5C 188.833,149.5 189.167,149.5 189.5,153.5C 190.5,153.5 191.5,153.5 192.5,153.5C 192.351,152.448 192.517,151.448 193,150.5C 194.494,154.304 195.328,153.971 195.5,149.5 Z"/></g>
<g><path style="opacity:1" fill="#a8b9d7" d="M 179.5,164.5 C 180.695,164.866 181.361,165.699 181.5,167C 180.954,170.559 180.787,174.059 181,177.5C 182.249,174.899 183.082,172.566 183.5,170.5C 183.833,171.5 184.167,172.5 184.5,173.5C 183.932,175.204 183.932,176.704 184.5,178C 183.234,178.309 182.067,178.809 181,179.5C 180.699,182.507 180.865,185.507 181.5,188.5C 180.5,188.5 179.5,188.5 178.5,188.5C 178.735,180.315 179.068,172.315 179.5,164.5 Z"/></g>
<g><path style="opacity:1" fill="#8fa4ca" d="M 175.5,170.5 C 176.586,170.62 177.253,171.287 177.5,172.5C 176.596,174.72 176.263,176.72 176.5,178.5C 175.52,175.914 175.187,173.247 175.5,170.5 Z"/></g>
<g><path style="opacity:1" fill="#b75b69" d="M 139.5,163.5 C 139.467,167.869 139.8,172.202 140.5,176.5C 139.883,176.389 139.383,176.056 139,175.5C 138.56,173.134 138.06,170.801 137.5,168.5C 138.167,166.833 138.833,165.167 139.5,163.5 Z"/></g>
<g><path style="opacity:1" fill="#a7b6d5" d="M 175.5,159.5 C 177.337,162.519 177.837,165.852 177,169.5C 176.056,168.737 175.556,167.737 175.5,166.5C 176.072,164.313 176.072,161.979 175.5,159.5 Z"/></g>
<g><path style="opacity:1" fill="#7490bf" d="M 198.5,155.5 C 198.433,156.959 198.766,158.292 199.5,159.5C 195.167,159.5 190.833,159.5 186.5,159.5C 186.5,169.5 186.5,179.5 186.5,189.5C 186.5,190.167 186.167,190.5 185.5,190.5C 185.663,188.143 185.497,185.81 185,183.5C 184.798,185.256 184.298,186.922 183.5,188.5C 183.067,187.085 182.733,185.252 182.5,183C 182.833,181.833 183.167,180.667 183.5,179.5C 184.086,179.709 184.586,180.043 185,180.5C 185.499,176.514 185.666,172.514 185.5,168.5C 184.5,168.5 183.5,168.5 182.5,168.5C 182.238,167.022 182.571,165.689 183.5,164.5C 184.396,165.506 185.062,165.506 185.5,164.5C 184.675,163.614 183.675,163.281 182.5,163.5C 182.187,160.753 182.52,158.086 183.5,155.5C 184.796,162.041 185.462,162.041 185.5,155.5C 187.143,155.48 188.476,156.147 189.5,157.5C 189.833,156.833 190.167,156.167 190.5,155.5C 191.738,159.311 192.404,159.311 192.5,155.5C 194.911,155.137 196.411,156.137 197,158.5C 197.232,157.263 197.732,156.263 198.5,155.5 Z"/></g>
<g><path style="opacity:1" fill="#faf9fa" d="M 199.5,159.5 C 200.556,172.036 196.223,182.036 186.5,189.5C 186.5,179.5 186.5,169.5 186.5,159.5C 190.833,159.5 195.167,159.5 199.5,159.5 Z"/></g>
<g><path style="opacity:1" fill="#a0293b" d="M 164.5,136.5 C 150.302,140.033 141.969,149.033 139.5,163.5C 138.833,165.167 138.167,166.833 137.5,168.5C 137.524,144.338 149.524,133.172 173.5,135C 170.305,135.181 167.305,135.681 164.5,136.5 Z"/></g>
<g><path style="opacity:1" fill="#f2e0e3" d="M 179.5,134.5 C 177.621,134.393 177.288,134.893 178.5,136C 173.845,136.499 169.179,136.666 164.5,136.5C 167.305,135.681 170.305,135.181 173.5,135C 149.524,133.172 137.524,144.338 137.5,168.5C 138.06,170.801 138.56,173.134 139,175.5C 139.383,176.056 139.883,176.389 140.5,176.5C 141.043,176.56 141.376,176.893 141.5,177.5C 140.757,178.182 140.091,178.849 139.5,179.5C 130.823,162.043 134.489,147.543 150.5,136C 160.049,130.673 169.716,130.173 179.5,134.5 Z"/></g>
<g><path style="opacity:1" fill="#fdfcfc" d="M 179.5,134.5 C 186.878,136.852 192.212,141.519 195.5,148.5C 187.913,148.186 180.413,148.519 173,149.5C 172.5,164.83 172.333,180.163 172.5,195.5C 157.784,197.976 146.784,192.642 139.5,179.5C 140.091,178.849 140.757,178.182 141.5,177.5C 141.376,176.893 141.043,176.56 140.5,176.5C 139.8,172.202 139.467,167.869 139.5,163.5C 141.969,149.033 150.302,140.033 164.5,136.5C 169.179,136.666 173.845,136.499 178.5,136C 177.288,134.893 177.621,134.393 179.5,134.5 Z"/></g>
<g><path style="opacity:1" fill="#6883b7" d="M 175.5,189.5 C 176.249,190.531 176.915,191.698 177.5,193C 177.167,193.167 176.833,193.333 176.5,193.5C 175.571,192.311 175.238,190.978 175.5,189.5 Z"/></g>
<g><path style="opacity:1" fill="#8e9dc4" d="M 181.5,192.5 C 180.71,193.401 179.71,194.068 178.5,194.5C 178.215,192.712 178.548,191.045 179.5,189.5C 180.919,190.005 181.585,191.005 181.5,192.5 Z"/></g>
<g><path style="opacity:1" fill="#a0283a" d="M 179.5,209.5 C 184.377,208.812 188.71,209.979 192.5,213C 191.833,214 191.167,215 190.5,216C 188.095,216.148 185.761,215.648 183.5,214.5C 180.483,215.38 179.816,217.214 181.5,220C 185.447,221.085 188.947,222.919 192,225.5C 193.085,236.235 188.252,240.402 177.5,238C 172.533,235.961 172.366,233.794 177,231.5C 179.561,233.344 182.394,233.844 185.5,233C 186.833,231.333 186.833,229.667 185.5,228C 176.975,227.164 173.475,222.664 175,214.5C 176.193,212.503 177.693,210.836 179.5,209.5 Z"/></g>
<g><path style="opacity:1" fill="#ce909c" d="M 299.5,210.5 C 301.265,209.539 303.265,209.205 305.5,209.5C 305.827,219.348 305.494,229.014 304.5,238.5C 304.5,229.167 304.5,219.833 304.5,210.5C 302.833,210.5 301.167,210.5 299.5,210.5 Z"/></g>
<g><path style="opacity:1" fill="#a0283a" d="M 324.5,209.5 C 327.518,209.335 330.518,209.502 333.5,210C 339.201,211.488 339.701,213.654 335,216.5C 327.255,212.885 322.755,215.385 321.5,224C 322.613,233.057 327.28,235.557 335.5,231.5C 338.823,232.938 339.156,234.771 336.5,237C 320.881,240.718 314.048,234.552 316,218.5C 317.688,214.315 320.521,211.315 324.5,209.5 Z"/></g>
<g><path style="opacity:1" fill="#a02a3c" d="M 210.5,209.5 C 215.883,208.605 220.549,209.938 224.5,213.5C 223.788,215.046 222.622,216.046 221,216.5C 210.678,212.812 206.345,216.479 208,227.5C 210.76,233.892 215.26,235.226 221.5,231.5C 225.551,234.629 224.884,236.795 219.5,238C 204.256,239.383 198.422,232.55 202,217.5C 204.074,213.923 206.907,211.256 210.5,209.5 Z"/></g>
<g><path style="opacity:1" fill="#ca8893" d="M 240.5,210.5 C 238.5,210.5 236.5,210.5 234.5,210.5C 234.5,219.833 234.5,229.167 234.5,238.5C 233.506,229.014 233.173,219.348 233.5,209.5C 236.059,209.198 238.393,209.532 240.5,210.5 Z"/></g>
<g><path style="opacity:1" fill="#9d2237" d="M 240.5,210.5 C 240.5,219.833 240.5,229.167 240.5,238.5C 238.5,238.5 236.5,238.5 234.5,238.5C 234.5,229.167 234.5,219.833 234.5,210.5C 236.5,210.5 238.5,210.5 240.5,210.5 Z"/></g>
<g><path style="opacity:1" fill="#9e2337" d="M 259.5,215.5 C 258.532,217.607 258.198,219.941 258.5,222.5C 261.5,222.5 264.5,222.5 267.5,222.5C 267.5,223.833 267.5,225.167 267.5,226.5C 264.833,226.5 262.167,226.5 259.5,226.5C 258.532,228.607 258.198,230.941 258.5,233.5C 262.5,233.5 266.5,233.5 270.5,233.5C 270.5,235.167 270.5,236.833 270.5,238.5C 264.5,238.5 258.5,238.5 252.5,238.5C 252.5,229.167 252.5,219.833 252.5,210.5C 258.5,210.5 264.5,210.5 270.5,210.5C 270.5,212.167 270.5,213.833 270.5,215.5C 266.833,215.5 263.167,215.5 259.5,215.5 Z"/></g>
<g><path style="opacity:1" fill="#9d2237" d="M 297.5,225.5 C 297.783,226.289 298.283,226.956 299,227.5C 299.499,221.843 299.666,216.176 299.5,210.5C 301.167,210.5 302.833,210.5 304.5,210.5C 304.5,219.833 304.5,229.167 304.5,238.5C 303.127,238.657 301.793,238.49 300.5,238C 295.593,232.602 290.927,227.102 286.5,221.5C 285.5,226.068 285.167,231.401 285.5,237.5C 283.833,237.5 282.167,237.5 280.5,237.5C 280.5,228.5 280.5,219.5 280.5,210.5C 282.199,210.34 283.866,210.506 285.5,211C 289.712,215.707 293.712,220.54 297.5,225.5 Z"/></g>
<g><path style="opacity:1" fill="#e4c3c8" d="M 299.5,210.5 C 299.666,216.176 299.499,221.843 299,227.5C 298.283,226.956 297.783,226.289 297.5,225.5C 298.167,220.5 298.833,215.5 299.5,210.5 Z"/></g>
<g><path style="opacity:1" fill="#ad4457" d="M 349.5,210.5 C 349.5,219.5 349.5,228.5 349.5,237.5C 355.167,237.5 360.833,237.5 366.5,237.5C 360.69,238.49 354.69,238.823 348.5,238.5C 348.173,228.985 348.506,219.652 349.5,210.5 Z"/></g>
<g><path style="opacity:1" fill="#9e2438" d="M 349.5,210.5 C 355.167,210.5 360.833,210.5 366.5,210.5C 366.5,212.167 366.5,213.833 366.5,215.5C 362.833,215.5 359.167,215.5 355.5,215.5C 355.5,217.5 355.5,219.5 355.5,221.5C 357.948,222.473 360.615,222.806 363.5,222.5C 363.5,223.833 363.5,225.167 363.5,226.5C 360.833,226.5 358.167,226.5 355.5,226.5C 355.5,228.833 355.5,231.167 355.5,233.5C 359.167,233.5 362.833,233.5 366.5,233.5C 366.5,234.833 366.5,236.167 366.5,237.5C 360.833,237.5 355.167,237.5 349.5,237.5C 349.5,228.5 349.5,219.5 349.5,210.5 Z"/></g>
<g><path style="opacity:1" fill="#c98490" d="M 259.5,215.5 C 259.5,217.5 259.5,219.5 259.5,221.5C 262.385,221.194 265.052,221.527 267.5,222.5C 264.5,222.5 261.5,222.5 258.5,222.5C 258.198,219.941 258.532,217.607 259.5,215.5 Z"/></g>
<g><path style="opacity:1" fill="#c57b88" d="M 355.5,221.5 C 358.5,221.5 361.5,221.5 364.5,221.5C 364.784,223.415 364.451,225.081 363.5,226.5C 363.5,225.167 363.5,223.833 363.5,222.5C 360.615,222.806 357.948,222.473 355.5,221.5 Z"/></g>
<g><path style="opacity:1" fill="#b75c6b" d="M 286.5,221.5 C 286.5,227.167 286.5,232.833 286.5,238.5C 284.265,238.795 282.265,238.461 280.5,237.5C 282.167,237.5 283.833,237.5 285.5,237.5C 285.167,231.401 285.5,226.068 286.5,221.5 Z"/></g>
<g><path style="opacity:1" fill="#ddb2b9" d="M 259.5,226.5 C 259.5,228.5 259.5,230.5 259.5,232.5C 263.371,232.185 267.038,232.518 270.5,233.5C 266.5,233.5 262.5,233.5 258.5,233.5C 258.198,230.941 258.532,228.607 259.5,226.5 Z"/></g>
</svg>
