<?xml version="1.0" encoding="UTF-8"?>
<!DOCTYPE svg PUBLIC "-//W3C//DTD SVG 1.1//EN" "http://www.w3.org/Graphics/SVG/1.1/DTD/svg11.dtd">
<svg xmlns="http://www.w3.org/2000/svg" version="1.1" width="406px" height="406px" style="shape-rendering:geometricPrecision; text-rendering:geometricPrecision; image-rendering:optimizeQuality; fill-rule:evenodd; clip-rule:evenodd" xmlns:xlink="http://www.w3.org/1999/xlink">
<g><path style="opacity:1" fill="#f8f8fa" d="M -0.5,-0.5 C 134.833,-0.5 270.167,-0.5 405.5,-0.5C 405.5,134.833 405.5,270.167 405.5,405.5C 270.167,405.5 134.833,405.5 -0.5,405.5C -0.5,270.167 -0.5,134.833 -0.5,-0.5 Z"/></g>
<g><path style="opacity:1" fill="#bdfefe" d="M 134.5,218.5 C 134.5,197.833 134.5,177.167 134.5,156.5C 127.167,156.5 119.833,156.5 112.5,156.5C 112.823,163.022 112.49,169.355 111.5,175.5C 111.5,168.833 111.5,162.167 111.5,155.5C 119.5,155.5 127.5,155.5 135.5,155.5C 135.831,176.673 135.497,197.673 134.5,218.5 Z"/></g>
<g><path style="opacity:1" fill="#0750f8" d="M 225.5,189.5 C 227.471,198.105 228.138,207.105 227.5,216.5C 225.833,216.5 224.167,216.5 222.5,216.5C 222.5,207.833 222.5,199.167 222.5,190.5C 223.791,190.737 224.791,190.404 225.5,189.5 Z"/></g>
<g><path style="opacity:1" fill="#88a4f1" d="M 287.5,216.5 C 286.506,207.348 286.173,198.015 286.5,188.5C 289.167,188.5 291.833,188.5 294.5,188.5C 294.5,195.833 294.5,203.167 294.5,210.5C 298.167,210.5 301.833,210.5 305.5,210.5C 305.5,212.833 305.5,215.167 305.5,217.5C 299.31,217.823 293.31,217.49 287.5,216.5 Z"/></g>
<g><path style="opacity:1" fill="#2058ee" d="M 247.5,194.5 C 246.508,201.648 246.175,208.981 246.5,216.5C 244.833,216.5 243.167,216.5 241.5,216.5C 241.784,214.585 241.451,212.919 240.5,211.5C 240.5,205.833 240.5,200.167 240.5,194.5C 237.833,194.5 235.167,194.5 232.5,194.5C 232.5,192.5 232.5,190.5 232.5,188.5C 240.167,188.5 247.833,188.5 255.5,188.5C 255.5,190.5 255.5,192.5 255.5,194.5C 252.833,194.5 250.167,194.5 247.5,194.5 Z"/></g>
<g><path style="opacity:1" fill="#2258f0" d="M 264.5,188.5 C 268.793,187.536 271.96,188.869 274,192.5C 277.275,200.83 280.442,209.163 283.5,217.5C 281.143,217.663 278.81,217.497 276.5,217C 275.709,212.664 273.042,210.83 268.5,211.5C 263.062,210.106 260.728,212.106 261.5,217.5C 258.753,217.813 256.086,217.48 253.5,216.5C 257.565,207.3 261.232,197.967 264.5,188.5 Z"/></g>
<g><path style="opacity:1" fill="#28ecfb" d="M 134.5,218.5 C 120.167,218.5 105.833,218.5 91.5,218.5C 91.5,218.167 91.5,217.833 91.5,217.5C 98.8409,217.666 106.174,217.5 113.5,217C 113.371,210.713 112.704,204.379 111.5,198C 104.842,197.5 98.175,197.334 91.5,197.5C 91.3338,191.158 91.5005,184.825 92,178.5C 98.8323,178.178 105.332,177.178 111.5,175.5C 112.49,169.355 112.823,163.022 112.5,156.5C 119.833,156.5 127.167,156.5 134.5,156.5C 134.5,177.167 134.5,197.833 134.5,218.5 Z"/></g>
<g><path style="opacity:1" fill="#1b54d3" d="M 221.5,189.5 C 222.833,189.5 224.167,189.5 225.5,189.5C 224.791,190.404 223.791,190.737 222.5,190.5C 222.5,199.167 222.5,207.833 222.5,216.5C 222.167,216.5 221.833,216.5 221.5,216.5C 221.5,207.5 221.5,198.5 221.5,189.5 Z"/></g>
<g><path style="opacity:1" fill="#a4d1fe" d="M 232.5,194.5 C 235.167,194.5 237.833,194.5 240.5,194.5C 240.5,200.167 240.5,205.833 240.5,211.5C 240.5,213.5 240.5,215.5 240.5,217.5C 239.508,210.352 239.175,203.019 239.5,195.5C 236.941,195.802 234.607,195.468 232.5,194.5 Z"/></g>
<g><path style="opacity:1" fill="#6296f6" d="M 159.5,189.5 C 154.5,189.5 149.5,189.5 144.5,189.5C 144.5,198.5 144.5,207.5 144.5,216.5C 149.167,216.5 153.833,216.5 158.5,216.5C 153.695,217.487 148.695,217.821 143.5,217.5C 143.5,207.833 143.5,198.167 143.5,188.5C 149.026,188.179 154.36,188.512 159.5,189.5 Z"/></g>
<g><path style="opacity:1" fill="#ccd7fc" d="M 270.5,202.5 C 268.486,202.392 266.82,203.058 265.5,204.5C 265.918,201.91 266.918,199.577 268.5,197.5C 270.217,198.668 270.884,200.335 270.5,202.5 Z"/></g>
<g><path style="opacity:1" fill="#5285f6" d="M 247.5,194.5 C 247.5,202.167 247.5,209.833 247.5,217.5C 245.167,217.5 242.833,217.5 240.5,217.5C 240.5,215.5 240.5,213.5 240.5,211.5C 241.451,212.919 241.784,214.585 241.5,216.5C 243.167,216.5 244.833,216.5 246.5,216.5C 246.175,208.981 246.508,201.648 247.5,194.5 Z"/></g>
<g><path style="opacity:1" fill="#99bbfb" d="M 203.5,200.5 C 207.298,199.517 211.298,199.183 215.5,199.5C 215.5,205.167 215.5,210.833 215.5,216.5C 214.167,216.5 212.833,216.5 211.5,216.5C 212.209,215.596 213.209,215.263 214.5,215.5C 214.5,210.5 214.5,205.5 214.5,200.5C 210.833,200.5 207.167,200.5 203.5,200.5 Z"/></g>
<g><path style="opacity:1" fill="#04befa" d="M 91.5,197.5 C 98.175,197.334 104.842,197.5 111.5,198C 112.704,204.379 113.371,210.713 113.5,217C 106.174,217.5 98.8409,217.666 91.5,217.5C 91.5,210.833 91.5,204.167 91.5,197.5 Z"/></g>
<g><path style="opacity:1" fill="#ddf9eb" d="M 270.5,202.5 C 271.404,203.209 271.737,204.209 271.5,205.5C 269.265,205.795 267.265,205.461 265.5,204.5C 266.82,203.058 268.486,202.392 270.5,202.5 Z"/></g>
<g><path style="opacity:1" fill="#87abf8" d="M 265.5,204.5 C 267.265,205.461 269.265,205.795 271.5,205.5C 269.307,206.797 266.973,206.797 264.5,205.5C 264.624,204.893 264.957,204.56 265.5,204.5 Z"/></g>
<g><path style="opacity:1" fill="#1454f0" d="M 159.5,189.5 C 171.225,193.888 173.725,201.555 167,212.5C 164.603,214.782 161.769,216.116 158.5,216.5C 153.833,216.5 149.167,216.5 144.5,216.5C 144.5,207.5 144.5,198.5 144.5,189.5C 149.5,189.5 154.5,189.5 159.5,189.5 Z"/></g>
<g><path style="opacity:1" fill="#adcffe" d="M 157.5,195.5 C 155.5,195.5 153.5,195.5 151.5,195.5C 151.5,200.5 151.5,205.5 151.5,210.5C 153.5,210.5 155.5,210.5 157.5,210.5C 155.393,211.468 153.059,211.802 150.5,211.5C 150.5,205.833 150.5,200.167 150.5,194.5C 153.059,194.198 155.393,194.532 157.5,195.5 Z"/></g>
<g><path style="opacity:1" fill="#f4f6f6" d="M 157.5,195.5 C 163.291,197.633 164.958,201.633 162.5,207.5C 161.06,208.952 159.394,209.952 157.5,210.5C 155.5,210.5 153.5,210.5 151.5,210.5C 151.5,205.5 151.5,200.5 151.5,195.5C 153.5,195.5 155.5,195.5 157.5,195.5 Z"/></g>
<g><path style="opacity:1" fill="#1b56f0" d="M 203.5,200.5 C 207.167,200.5 210.833,200.5 214.5,200.5C 214.5,205.5 214.5,210.5 214.5,215.5C 213.209,215.263 212.209,215.596 211.5,216.5C 201.102,220.268 193.602,217.268 189,207.5C 186.684,195.649 191.517,188.983 203.5,187.5C 206.698,187.622 209.698,188.455 212.5,190C 214.011,192.782 213.178,194.615 210,195.5C 199.244,191.248 194.577,194.915 196,206.5C 198.898,211.022 202.898,212.355 208,210.5C 208.494,208.866 208.66,207.199 208.5,205.5C 206.833,205.5 205.167,205.5 203.5,205.5C 203.5,203.833 203.5,202.167 203.5,200.5 Z"/></g>
<g><path style="opacity:1" fill="#5d86e0" d="M 221.5,189.5 C 223.607,188.532 225.941,188.198 228.5,188.5C 228.5,198.167 228.5,207.833 228.5,217.5C 225.941,217.802 223.607,217.468 221.5,216.5C 221.833,216.5 222.167,216.5 222.5,216.5C 224.167,216.5 225.833,216.5 227.5,216.5C 228.138,207.105 227.471,198.105 225.5,189.5C 224.167,189.5 222.833,189.5 221.5,189.5 Z"/></g>
<g><path style="opacity:1" fill="#0b51f3" d="M 287.5,216.5 C 287.5,207.5 287.5,198.5 287.5,189.5C 289.5,189.5 291.5,189.5 293.5,189.5C 293.5,196.833 293.5,204.167 293.5,211.5C 297.167,211.5 300.833,211.5 304.5,211.5C 304.5,213.167 304.5,214.833 304.5,216.5C 298.833,216.5 293.167,216.5 287.5,216.5 Z"/></g>
<g><path style="opacity:1" fill="#0754f8" d="M 70.5,197.5 C 77.5,197.5 84.5,197.5 91.5,197.5C 91.5,204.167 91.5,210.833 91.5,217.5C 84.5,217.5 77.5,217.5 70.5,217.5C 70.5,210.833 70.5,204.167 70.5,197.5 Z"/></g>
<g><path style="opacity:1" fill="#72a2fb" d="M 175.5,188.5 C 178.167,188.5 180.833,188.5 183.5,188.5C 183.5,198.167 183.5,207.833 183.5,217.5C 180.833,217.5 178.167,217.5 175.5,217.5C 175.5,207.833 175.5,198.167 175.5,188.5 Z"/></g>
<g><path style="opacity:1" fill="#0a51ef" d="M 176.5,189.5 C 178.5,189.5 180.5,189.5 182.5,189.5C 182.5,198.5 182.5,207.5 182.5,216.5C 180.5,216.5 178.5,216.5 176.5,216.5C 176.5,207.5 176.5,198.5 176.5,189.5 Z"/></g>
<g><path style="opacity:1" fill="#6c94ed" d="M 70.5,197.5 C 70.5,204.167 70.5,210.833 70.5,217.5C 77.5,217.5 84.5,217.5 91.5,217.5C 91.5,217.833 91.5,218.167 91.5,218.5C 84.1667,218.5 76.8333,218.5 69.5,218.5C 69.1755,211.313 69.5088,204.313 70.5,197.5 Z"/></g>
<g><path style="opacity:1" fill="#3c6ad6" d="M 186.5,227.5 C 184.565,226.85 182.565,226.517 180.5,226.5C 180.843,228.483 180.176,229.817 178.5,230.5C 179.038,228.883 179.371,227.216 179.5,225.5C 182.388,224.99 184.721,225.656 186.5,227.5 Z"/></g>
<g><path style="opacity:1" fill="#1956ee" d="M 197.5,225.5 C 201.514,225.334 205.514,225.501 209.5,226C 213.213,227.691 214.379,230.525 213,234.5C 211.647,235.685 210.48,237.019 209.5,238.5C 210.63,239.622 211.297,240.956 211.5,242.5C 212.83,246.402 211.497,247.402 207.5,245.5C 206.489,243.628 205.655,241.628 205,239.5C 204.329,238.748 203.496,238.414 202.5,238.5C 201.527,240.948 201.194,243.615 201.5,246.5C 200.167,246.5 198.833,246.5 197.5,246.5C 197.5,239.5 197.5,232.5 197.5,225.5 Z"/></g>
<g><path style="opacity:1" fill="#1453f6" d="M 319.5,226.5 C 323.167,226.5 326.833,226.5 330.5,226.5C 330.5,227.833 330.5,229.167 330.5,230.5C 327.115,229.372 323.781,229.372 320.5,230.5C 316.932,229.938 316.598,228.605 319.5,226.5 Z"/></g>
<g><path style="opacity:1" fill="#3c66d9" d="M 319.5,226.5 C 323.311,225.355 327.311,225.188 331.5,226C 332.916,227.915 332.582,229.415 330.5,230.5C 330.5,229.167 330.5,227.833 330.5,226.5C 326.833,226.5 323.167,226.5 319.5,226.5 Z"/></g>
<g><path style="opacity:1" fill="#2056f0" d="M 186.5,227.5 C 188.441,231.718 190.108,236.051 191.5,240.5C 191.357,242.262 191.691,243.929 192.5,245.5C 191.311,246.429 189.978,246.762 188.5,246.5C 187.766,245.292 187.433,243.959 187.5,242.5C 184.167,242.5 180.833,242.5 177.5,242.5C 177.5,244.167 177.5,245.833 177.5,247.5C 175.5,247.5 173.5,247.5 171.5,247.5C 172.574,243.695 173.908,240.029 175.5,236.5C 176.496,236.586 177.329,236.252 178,235.5C 178.494,233.866 178.66,232.199 178.5,230.5C 180.176,229.817 180.843,228.483 180.5,226.5C 182.565,226.517 184.565,226.85 186.5,227.5 Z"/></g>
<g><path style="opacity:1" fill="#1053f1" d="M 258.5,225.5 C 264.167,225.5 269.833,225.5 275.5,225.5C 275.5,226.833 275.5,228.167 275.5,229.5C 273.5,229.5 271.5,229.5 269.5,229.5C 268.511,234.975 268.178,240.642 268.5,246.5C 267.167,246.5 265.833,246.5 264.5,246.5C 264.5,240.833 264.5,235.167 264.5,229.5C 262.5,229.5 260.5,229.5 258.5,229.5C 258.5,228.167 258.5,226.833 258.5,225.5 Z"/></g>
<g><path style="opacity:1" fill="#4174e7" d="M 153.5,231.5 C 152.176,230.15 151.176,230.317 150.5,232C 151.871,234.319 152.538,236.819 152.5,239.5C 152.5,240.167 152.5,240.833 152.5,241.5C 151.463,240.07 150.796,238.403 150.5,236.5C 150.011,235.005 149.345,233.671 148.5,232.5C 149.73,230.703 150.396,228.703 150.5,226.5C 148.5,226.5 146.5,226.5 144.5,226.5C 144.5,233.167 144.5,239.833 144.5,246.5C 145.833,246.5 147.167,246.5 148.5,246.5C 148.5,246.833 148.5,247.167 148.5,247.5C 146.833,247.5 145.167,247.5 143.5,247.5C 143.5,240.167 143.5,232.833 143.5,225.5C 146.187,225.336 148.854,225.503 151.5,226C 152.464,227.725 153.131,229.559 153.5,231.5 Z"/></g>
<g><path style="opacity:1" fill="#1f58ed" d="M 168.5,238.5 C 167.527,240.948 167.194,243.615 167.5,246.5C 166.5,246.5 165.5,246.5 164.5,246.5C 164.827,241.786 164.493,237.12 163.5,232.5C 162.893,232.624 162.56,232.957 162.5,233.5C 160.873,237.996 159.54,242.663 158.5,247.5C 154.303,247.806 152.303,245.806 152.5,241.5C 152.5,240.833 152.5,240.167 152.5,239.5C 153.911,241.539 155.911,242.539 158.5,242.5C 158.5,241.5 158.5,240.5 158.5,239.5C 156.821,239.715 155.821,239.048 155.5,237.5C 158.666,234.225 160.332,230.225 160.5,225.5C 163.167,225.5 165.833,225.5 168.5,225.5C 168.5,229.833 168.5,234.167 168.5,238.5 Z"/></g>
<g><path style="opacity:1" fill="#7c9ee6" d="M 197.5,225.5 C 197.5,232.5 197.5,239.5 197.5,246.5C 198.833,246.5 200.167,246.5 201.5,246.5C 201.194,243.615 201.527,240.948 202.5,238.5C 202.5,241.5 202.5,244.5 202.5,247.5C 200.5,247.5 198.5,247.5 196.5,247.5C 196.175,239.981 196.508,232.648 197.5,225.5 Z"/></g>
<g><path style="opacity:1" fill="#d8ecf9" d="M 202.5,229.5 C 204.199,229.34 205.866,229.506 207.5,230C 208.833,231.333 208.833,232.667 207.5,234C 205.866,234.494 204.199,234.66 202.5,234.5C 202.5,232.833 202.5,231.167 202.5,229.5 Z"/></g>
<g><path style="opacity:1" fill="#2e5edf" d="M 319.5,226.5 C 316.598,228.605 316.932,229.938 320.5,230.5C 318.874,233.246 318.207,236.246 318.5,239.5C 317.532,237.393 317.198,235.059 317.5,232.5C 316.5,232.5 315.5,232.5 314.5,232.5C 313.721,237.918 315.387,242.251 319.5,245.5C 316.708,245.548 314.875,244.215 314,241.5C 313.333,237.833 313.333,234.167 314,230.5C 315.451,228.536 317.284,227.203 319.5,226.5 Z"/></g>
<g><path style="opacity:1" fill="#719ff9" d="M 258.5,225.5 C 258.5,226.833 258.5,228.167 258.5,229.5C 260.5,229.5 262.5,229.5 264.5,229.5C 264.5,235.167 264.5,240.833 264.5,246.5C 265.833,246.5 267.167,246.5 268.5,246.5C 268.178,240.642 268.511,234.975 269.5,229.5C 269.5,235.5 269.5,241.5 269.5,247.5C 267.5,247.5 265.5,247.5 263.5,247.5C 263.5,241.833 263.5,236.167 263.5,230.5C 261.5,230.5 259.5,230.5 257.5,230.5C 257.216,228.585 257.549,226.919 258.5,225.5 Z"/></g>
<g><path style="opacity:1" fill="#4378d5" d="M 178.5,230.5 C 178.66,232.199 178.494,233.866 178,235.5C 177.329,236.252 176.496,236.586 175.5,236.5C 175.992,234.181 176.992,232.181 178.5,230.5 Z"/></g>
<g><path style="opacity:1" fill="#7aa0ef" d="M 255.5,229.5 C 252.713,230.477 249.713,230.81 246.5,230.5C 246.5,231.5 246.5,232.5 246.5,233.5C 249.167,233.5 251.833,233.5 254.5,233.5C 254.5,235.167 254.5,236.833 254.5,238.5C 251.5,238.5 248.5,238.5 245.5,238.5C 247.948,237.527 250.615,237.194 253.5,237.5C 253.5,236.5 253.5,235.5 253.5,234.5C 250.833,234.5 248.167,234.5 245.5,234.5C 245.5,232.833 245.5,231.167 245.5,229.5C 248.833,229.5 252.167,229.5 255.5,229.5 Z"/></g>
<g><path style="opacity:1" fill="#235ced" d="M 218.5,225.5 C 220.167,225.5 221.833,225.5 223.5,225.5C 223.336,228.187 223.503,230.854 224,233.5C 225.793,230.705 227.96,228.205 230.5,226C 232.579,225.192 234.579,225.359 236.5,226.5C 233.833,229.5 231.167,232.5 228.5,235.5C 231.878,238.876 234.878,242.543 237.5,246.5C 235.579,247.641 233.579,247.808 231.5,247C 229.353,243.885 226.853,241.052 224,238.5C 223.503,241.146 223.336,243.813 223.5,246.5C 221.833,246.5 220.167,246.5 218.5,246.5C 218.5,239.5 218.5,232.5 218.5,225.5 Z"/></g>
<g><path style="opacity:1" fill="#587ede" d="M 278.5,225.5 C 280.5,225.5 282.5,225.5 284.5,225.5C 284.5,232.833 284.5,240.167 284.5,247.5C 282.5,247.5 280.5,247.5 278.5,247.5C 278.5,240.167 278.5,232.833 278.5,225.5 Z"/></g>
<g><path style="opacity:1" fill="#0951f4" d="M 279.5,226.5 C 280.5,226.5 281.5,226.5 282.5,226.5C 283.276,233.137 283.609,239.804 283.5,246.5C 282.167,246.5 280.833,246.5 279.5,246.5C 279.5,239.833 279.5,233.167 279.5,226.5 Z"/></g>
<g><path style="opacity:1" fill="#0e52ec" d="M 148.5,232.5 C 148.5,237.167 148.5,241.833 148.5,246.5C 147.167,246.5 145.833,246.5 144.5,246.5C 144.5,239.833 144.5,233.167 144.5,226.5C 146.5,226.5 148.5,226.5 150.5,226.5C 150.396,228.703 149.73,230.703 148.5,232.5 Z"/></g>
<g><path style="opacity:1" fill="#c5e1f4" d="M 181.5,232.5 C 182.496,232.414 183.329,232.748 184,233.5C 186.558,237.458 185.392,239.124 180.5,238.5C 180.517,236.435 180.85,234.435 181.5,232.5 Z"/></g>
<g><path style="opacity:1" fill="#1a55f9" d="M 153.5,231.5 C 154.458,233.302 155.125,235.302 155.5,237.5C 155.821,239.048 156.821,239.715 158.5,239.5C 158.5,240.5 158.5,241.5 158.5,242.5C 155.911,242.539 153.911,241.539 152.5,239.5C 152.538,236.819 151.871,234.319 150.5,232C 151.176,230.317 152.176,230.15 153.5,231.5 Z"/></g>
<g><path style="opacity:1" fill="#3e7bec" d="M 162.5,233.5 C 162.56,232.957 162.893,232.624 163.5,232.5C 164.493,237.12 164.827,241.786 164.5,246.5C 165.5,246.5 166.5,246.5 167.5,246.5C 167.194,243.615 167.527,240.948 168.5,238.5C 168.5,241.5 168.5,244.5 168.5,247.5C 166.833,247.5 165.167,247.5 163.5,247.5C 163.819,242.637 163.486,237.97 162.5,233.5 Z"/></g>
<g><path style="opacity:1" fill="#1d56f0" d="M 289.5,225.5 C 291.527,225.338 293.527,225.505 295.5,226C 297.876,229.919 300.376,233.752 303,237.5C 303.499,233.514 303.666,229.514 303.5,225.5C 305.167,225.5 306.833,225.5 308.5,225.5C 309.076,233.111 308.41,240.444 306.5,247.5C 305.022,247.762 303.689,247.429 302.5,246.5C 300.406,242.636 298.072,238.969 295.5,235.5C 295.44,234.957 295.107,234.624 294.5,234.5C 293.506,238.452 292.84,242.452 292.5,246.5C 291.5,246.5 290.5,246.5 289.5,246.5C 289.778,239.418 289.778,232.418 289.5,225.5 Z"/></g>
<g><path style="opacity:1" fill="#1154f8" d="M 318.5,239.5 C 319.5,239.833 320.167,240.5 320.5,241.5C 320.414,242.496 320.748,243.329 321.5,244C 323.9,244.186 326.234,244.686 328.5,245.5C 325.572,246.484 322.572,246.817 319.5,246.5C 319.5,246.167 319.5,245.833 319.5,245.5C 315.387,242.251 313.721,237.918 314.5,232.5C 315.5,232.5 316.5,232.5 317.5,232.5C 317.198,235.059 317.532,237.393 318.5,239.5 Z"/></g>
<g><path style="opacity:1" fill="#aacaff" d="M 148.5,232.5 C 149.345,233.671 150.011,235.005 150.5,236.5C 149.833,240.167 149.167,243.833 148.5,247.5C 148.5,247.167 148.5,246.833 148.5,246.5C 148.5,241.833 148.5,237.167 148.5,232.5 Z"/></g>
<g><path style="opacity:1" fill="#91b9fc" d="M 308.5,225.5 C 309.492,232.648 309.825,239.981 309.5,247.5C 308.5,247.5 307.5,247.5 306.5,247.5C 308.41,240.444 309.076,233.111 308.5,225.5 Z"/></g>
<g><path style="opacity:1" fill="#1b56eb" d="M 241.5,225.5 C 246.167,225.5 250.833,225.5 255.5,225.5C 255.5,226.833 255.5,228.167 255.5,229.5C 252.167,229.5 248.833,229.5 245.5,229.5C 245.5,231.167 245.5,232.833 245.5,234.5C 248.167,234.5 250.833,234.5 253.5,234.5C 253.5,235.5 253.5,236.5 253.5,237.5C 250.615,237.194 247.948,237.527 245.5,238.5C 245.5,239.833 245.5,241.167 245.5,242.5C 248.833,242.5 252.167,242.5 255.5,242.5C 255.5,243.833 255.5,245.167 255.5,246.5C 250.833,246.5 246.167,246.5 241.5,246.5C 241.5,239.5 241.5,232.5 241.5,225.5 Z"/></g>
<g><path style="opacity:1" fill="#85adf9" d="M 218.5,225.5 C 218.5,232.5 218.5,239.5 218.5,246.5C 220.167,246.5 221.833,246.5 223.5,246.5C 221.735,247.461 219.735,247.795 217.5,247.5C 217.175,239.981 217.508,232.648 218.5,225.5 Z"/></g>
<g><path style="opacity:1" fill="#527cde" d="M 241.5,225.5 C 241.5,232.5 241.5,239.5 241.5,246.5C 246.167,246.5 250.833,246.5 255.5,246.5C 250.695,247.487 245.695,247.821 240.5,247.5C 240.175,239.981 240.508,232.648 241.5,225.5 Z"/></g>
<g><path style="opacity:1" fill="#3466e1" d="M 319.5,246.5 C 322.572,246.817 325.572,246.484 328.5,245.5C 326.234,244.686 323.9,244.186 321.5,244C 320.748,243.329 320.414,242.496 320.5,241.5C 323.054,242.388 325.721,242.721 328.5,242.5C 328.5,241.167 328.5,239.833 328.5,238.5C 327.167,238.5 325.833,238.5 324.5,238.5C 324.5,237.167 324.5,235.833 324.5,234.5C 327.5,234.5 330.5,234.5 333.5,234.5C 333.5,238.5 333.5,242.5 333.5,246.5C 328.688,247.678 324.021,247.678 319.5,246.5 Z"/></g>
<g><path style="opacity:1" fill="#0754ef" d="M 325.5,235.5 C 327.833,235.5 330.167,235.5 332.5,235.5C 332.5,238.833 332.5,242.167 332.5,245.5C 331.5,245.5 330.5,245.5 329.5,245.5C 329.5,242.833 329.5,240.167 329.5,237.5C 327.517,237.843 326.183,237.176 325.5,235.5 Z"/></g>
<g><path style="opacity:1" fill="#5d86e3" d="M 191.5,240.5 C 193.293,242.426 194.293,244.759 194.5,247.5C 192.265,247.795 190.265,247.461 188.5,246.5C 189.978,246.762 191.311,246.429 192.5,245.5C 191.691,243.929 191.357,242.262 191.5,240.5 Z"/></g>
<g><path style="opacity:1" fill="#5684e6" d="M 211.5,242.5 C 214.882,244.73 214.882,246.397 211.5,247.5C 209.645,247.66 208.312,246.993 207.5,245.5C 211.497,247.402 212.83,246.402 211.5,242.5 Z"/></g>
<g><path style="opacity:1" fill="#6c92e6" d="M 289.5,225.5 C 289.778,232.418 289.778,239.418 289.5,246.5C 290.5,246.5 291.5,246.5 292.5,246.5C 292.84,242.452 293.506,238.452 294.5,234.5C 295.107,234.624 295.44,234.957 295.5,235.5C 294.517,239.298 294.183,243.298 294.5,247.5C 292.5,247.5 290.5,247.5 288.5,247.5C 288.175,239.981 288.508,232.648 289.5,225.5 Z"/></g>
</svg>
