<?xml version="1.0" encoding="UTF-8"?>
<!DOCTYPE svg PUBLIC "-//W3C//DTD SVG 1.1//EN" "http://www.w3.org/Graphics/SVG/1.1/DTD/svg11.dtd">
<svg xmlns="http://www.w3.org/2000/svg" version="1.1" width="181px" height="185px" style="shape-rendering:geometricPrecision; text-rendering:geometricPrecision; image-rendering:optimizeQuality; fill-rule:evenodd; clip-rule:evenodd" xmlns:xlink="http://www.w3.org/1999/xlink">
<g><path style="opacity:1" fill="#0f0d10" d="M -0.5,-0.5 C 15.5,-0.5 31.5,-0.5 47.5,-0.5C 47.5,2.16667 47.5,4.83333 47.5,7.5C 42.1667,6.83333 36.8333,6.16667 31.5,5.5C 31.5,8.83333 31.5,12.1667 31.5,15.5C 28.8333,15.5 26.1667,15.5 23.5,15.5C 23.5,18.1667 23.5,20.8333 23.5,23.5C 20.8333,23.5 18.1667,23.5 15.5,23.5C 15.5,26.1667 15.5,28.8333 15.5,31.5C 12.8333,31.5 10.1667,31.5 7.5,31.5C 7.5,34.1667 7.5,36.8333 7.5,39.5C 4.83333,39.5 2.16667,39.5 -0.5,39.5C -0.5,26.1667 -0.5,12.8333 -0.5,-0.5 Z"/></g>
<g><path style="opacity:1" fill="#0e0c0f" d="M 111.5,-0.5 C 134.5,-0.5 157.5,-0.5 180.5,-0.5C 180.5,61.1667 180.5,122.833 180.5,184.5C 177.5,184.5 174.5,184.5 171.5,184.5C 174.042,175.13 174.042,165.63 171.5,156C 174.107,152.342 175.441,148.175 175.5,143.5C 174.167,143.5 172.833,143.5 171.5,143.5C 171.813,146.247 171.48,148.914 170.5,151.5C 169.207,140.105 166.541,129.105 162.5,118.5C 160.951,114.027 159.951,109.361 159.5,104.5C 158.5,104.5 157.5,104.5 156.5,104.5C 151.95,103.603 147.617,101.937 143.5,99.5C 144,99.1667 144.5,98.8333 145,98.5C 149.534,100.921 154.367,101.921 159.5,101.5C 159.5,99.8333 159.5,98.1667 159.5,96.5C 156.116,96.3396 152.783,96.673 149.5,97.5C 147.627,97.5177 147.294,97.0177 148.5,96C 154.825,95.5005 161.158,95.3338 167.5,95.5C 167.5,90.1667 167.5,84.8333 167.5,79.5C 170.167,79.5 172.833,79.5 175.5,79.5C 175.5,76.8333 175.5,74.1667 175.5,71.5C 174.167,71.5 172.833,71.5 171.5,71.5C 171.5,68.8333 171.5,66.1667 171.5,63.5C 170.167,63.5 168.833,63.5 167.5,63.5C 167.5,55.5 167.5,47.5 167.5,39.5C 164.833,39.5 162.167,39.5 159.5,39.5C 159.5,34.1667 159.5,28.8333 159.5,23.5C 154.167,23.5 148.833,23.5 143.5,23.5C 143.5,24.8333 143.5,26.1667 143.5,27.5C 140.833,27.5 138.167,27.5 135.5,27.5C 135.5,26.1667 135.5,24.8333 135.5,23.5C 132.833,23.5 130.167,23.5 127.5,23.5C 127.5,17.5 127.5,11.5 127.5,5.5C 122.167,4.83333 116.833,4.16667 111.5,3.5C 111.5,2.16667 111.5,0.833333 111.5,-0.5 Z"/></g>
<g><path style="opacity:1" fill="#151012" d="M 83.5,-0.5 C 92.8333,-0.5 102.167,-0.5 111.5,-0.5C 111.5,0.833333 111.5,2.16667 111.5,3.5C 116.833,4.16667 122.167,4.83333 127.5,5.5C 127.5,11.5 127.5,17.5 127.5,23.5C 130.167,23.5 132.833,23.5 135.5,23.5C 135.5,24.8333 135.5,26.1667 135.5,27.5C 138.167,27.5 140.833,27.5 143.5,27.5C 143.5,26.1667 143.5,24.8333 143.5,23.5C 148.833,23.5 154.167,23.5 159.5,23.5C 159.5,28.8333 159.5,34.1667 159.5,39.5C 156.833,39.5 154.167,39.5 151.5,39.5C 151.5,36.8333 151.5,34.1667 151.5,31.5C 147.407,31.4778 143.407,30.8112 139.5,29.5C 136.833,30.1667 134.167,30.8333 131.5,31.5C 129.68,31.3507 128.18,30.6841 127,29.5C 126.667,30.1667 126.333,30.8333 126,31.5C 125.818,28.7737 125.318,26.1071 124.5,23.5C 124.167,24.8333 123.833,26.1667 123.5,27.5C 125.25,34.0835 126.583,40.7501 127.5,47.5C 126.167,47.5 124.833,47.5 123.5,47.5C 124.045,55.4443 122.211,62.7776 118,69.5C 117.667,69.1667 117.333,68.8333 117,68.5C 115.67,69.5822 114.17,70.2488 112.5,70.5C 112.5,70.1667 112.5,69.8333 112.5,69.5C 112.5,68.1667 112.5,66.8333 112.5,65.5C 113.158,66.3984 113.824,67.3984 114.5,68.5C 115.107,68.3764 115.44,68.0431 115.5,67.5C 117.12,64.1457 118.453,60.6457 119.5,57C 117.579,54.7034 117.579,52.7034 119.5,51C 117.641,49.4128 116.307,49.9128 115.5,52.5C 114.371,50.3718 114.204,48.0385 115,45.5C 115.333,46.5 115.667,47.5 116,48.5C 116.393,45.367 117.226,42.367 118.5,39.5C 118.167,38.8333 117.833,38.1667 117.5,37.5C 116.749,38.376 116.249,39.376 116,40.5C 115.29,39.0267 114.124,38.3601 112.5,38.5C 113.242,36.5742 114.242,34.7409 115.5,33C 114.5,32.6667 113.5,32.3333 112.5,32C 113.878,30.2866 115.545,28.9533 117.5,28C 114.456,27.6411 114.122,26.9745 116.5,26C 115.167,25.3333 115.167,24.6667 116.5,24C 115.975,23.3076 115.308,22.8076 114.5,22.5C 113.289,24.4219 111.956,26.2552 110.5,28C 109.5,28.6667 108.5,28.6667 107.5,28C 110.759,25.9783 112.259,23.145 112,19.5C 111.333,20.1667 110.667,20.8333 110,21.5C 109.333,20.1667 108.667,18.8333 108,17.5C 106.933,19.2826 105.433,19.7826 103.5,19C 104.672,18.5814 105.672,17.9147 106.5,17C 104.726,16.1192 104.06,14.9525 104.5,13.5C 100.229,14.9057 95.8958,15.9057 91.5,16.5C 88.4761,16.9467 88.1428,17.78 90.5,19C 87.8358,21.6692 86.0024,24.8359 85,28.5C 84.3333,24.5 83.6667,24.5 83,28.5C 81.9614,27.7562 81.4614,26.7562 81.5,25.5C 81.6234,22.626 82.6234,20.126 84.5,18C 88.6829,15.7429 93.0162,13.7429 97.5,12C 96.1279,11.5983 94.7946,11.0983 93.5,10.5C 91.2324,11.5443 88.8991,11.711 86.5,11C 87.1667,10.3333 87.8333,9.66667 88.5,9C 95.8423,9.95613 102.842,10.9561 109.5,12C 101.441,8.87947 93.1074,7.04613 84.5,6.5C 82.2639,4.98561 82.5972,3.48561 85.5,2C 84.6195,1.2917 83.9528,0.458367 83.5,-0.5 Z"/></g>
<g><path style="opacity:1" fill="#3c2f2e" d="M 84.5,6.5 C 93.1074,7.04613 101.441,8.87947 109.5,12C 102.842,10.9561 95.8423,9.95613 88.5,9C 87.8333,9.66667 87.1667,10.3333 86.5,11C 88.8991,11.711 91.2324,11.5443 93.5,10.5C 94.7946,11.0983 96.1279,11.5983 97.5,12C 93.0162,13.7429 88.6829,15.7429 84.5,18C 82.6234,20.126 81.6234,22.626 81.5,25.5C 80.7784,25.9175 80.2784,26.5842 80,27.5C 79.8333,26.8333 79.6667,26.1667 79.5,25.5C 80.213,22.2966 81.0463,19.2966 82,16.5C 78.2278,20.6708 77.5612,25.3375 80,30.5C 81.0875,28.0684 81.5875,28.4017 81.5,31.5C 80.5,31.5 79.5,31.5 78.5,31.5C 78.1667,33.5 77.8333,35.5 77.5,37.5C 76.5,37.5 75.5,37.5 74.5,37.5C 74.9396,41.3713 74.9396,45.038 74.5,48.5C 73.6864,43.8809 73.3531,39.2142 73.5,34.5C 75.6348,34.853 76.9681,34.0197 77.5,32C 76.6777,29.5661 76.3444,27.0661 76.5,24.5C 77.1652,19.6728 79.4985,15.8395 83.5,13C 81.1224,12.0255 81.4557,11.3589 84.5,11C 83.3536,8.48443 81.687,8.31777 79.5,10.5C 78.2267,9.92317 78.2267,9.2565 79.5,8.5C 81.1955,7.82556 82.8621,7.1589 84.5,6.5 Z"/></g>
<g><path style="opacity:1" fill="#493736" d="M 112.5,38.5 C 112.167,38.5 111.833,38.5 111.5,38.5C 111.5,37.8333 111.5,37.1667 111.5,36.5C 111.389,35.8826 111.056,35.3826 110.5,35C 108.527,34.5045 106.527,34.3379 104.5,34.5C 104.389,33.8826 104.056,33.3826 103.5,33C 104.973,32.2904 105.64,31.1238 105.5,29.5C 104.448,29.6495 103.448,29.4828 102.5,29C 103.833,28.3333 105.167,27.6667 106.5,27C 105.167,26.3333 105.167,25.6667 106.5,25C 105.007,23.6319 103.507,23.4652 102,24.5C 100.562,23.0997 99.7286,21.433 99.5,19.5C 100.552,19.6495 101.552,19.4828 102.5,19C 98.5349,18.8923 94.8683,18.059 91.5,16.5C 95.8958,15.9057 100.229,14.9057 104.5,13.5C 104.06,14.9525 104.726,16.1192 106.5,17C 105.672,17.9147 104.672,18.5814 103.5,19C 105.433,19.7826 106.933,19.2826 108,17.5C 108.667,18.8333 109.333,20.1667 110,21.5C 110.667,20.8333 111.333,20.1667 112,19.5C 112.259,23.145 110.759,25.9783 107.5,28C 108.5,28.6667 109.5,28.6667 110.5,28C 111.956,26.2552 113.289,24.4219 114.5,22.5C 115.308,22.8076 115.975,23.3076 116.5,24C 115.167,24.6667 115.167,25.3333 116.5,26C 114.122,26.9745 114.456,27.6411 117.5,28C 115.545,28.9533 113.878,30.2866 112.5,32C 113.5,32.3333 114.5,32.6667 115.5,33C 114.242,34.7409 113.242,36.5742 112.5,38.5 Z"/></g>
<g><path style="opacity:1" fill="#121013" d="M 47.5,-0.5 C 59.5,-0.5 71.5,-0.5 83.5,-0.5C 83.9528,0.458367 84.6195,1.2917 85.5,2C 82.5972,3.48561 82.2639,4.98561 84.5,6.5C 82.8621,7.1589 81.1955,7.82556 79.5,8.5C 78.2267,9.2565 78.2267,9.92317 79.5,10.5C 76.443,12.7147 72.7763,15.048 68.5,17.5C 67.3468,20.152 65.5134,22.152 63,23.5C 62.79,25.0581 62.29,26.3915 61.5,27.5C 61.7213,23.2046 60.3879,22.5379 57.5,25.5C 56.6919,25.1924 56.0253,24.6924 55.5,24C 50.1771,23.5006 44.8437,23.334 39.5,23.5C 39.5,26.1667 39.5,28.8333 39.5,31.5C 35.5,31.5 31.5,31.5 27.5,31.5C 27.5,34.1667 27.5,36.8333 27.5,39.5C 28.8333,39.5 30.1667,39.5 31.5,39.5C 31.5,42.1667 31.5,44.8333 31.5,47.5C 29.1667,47.5 26.8333,47.5 24.5,47.5C 24.1667,58.1667 23.8333,58.1667 23.5,47.5C 22.1667,47.5 20.8333,47.5 19.5,47.5C 19.5,50.1667 19.5,52.8333 19.5,55.5C 18.0222,55.238 16.6888,55.5713 15.5,56.5C 16.7366,57.2807 17.7366,58.2807 18.5,59.5C 14.9218,62.6233 13.5885,66.6233 14.5,71.5C 17.8333,71.5 21.1667,71.5 24.5,71.5C 24.1667,76.8333 23.8333,82.1667 23.5,87.5C 25.8568,87.3367 28.1902,87.5034 30.5,88C 25.1667,90.3333 25.1667,92.6667 30.5,95C 32.4727,95.4955 34.4727,95.6621 36.5,95.5C 37.1389,97.7604 38.3055,99.7604 40,101.5C 41.3297,100.418 42.8297,99.7512 44.5,99.5C 40.5351,101.685 36.3684,103.685 32,105.5C 30.85,104.576 29.85,104.576 29,105.5C 27.9125,103.068 27.4125,103.402 27.5,106.5C 27.1667,106.5 26.8333,106.5 26.5,106.5C 26.6495,105.448 26.4828,104.448 26,103.5C 25.7104,105.044 25.0437,106.377 24,107.5C 21.4604,105.98 18.627,104.98 15.5,104.5C 18.0865,103.52 20.7531,103.187 23.5,103.5C 23.5,100.833 23.5,98.1667 23.5,95.5C 20.8333,95.5 18.1667,95.5 15.5,95.5C 15.5,92.8333 15.5,90.1667 15.5,87.5C 12.8333,87.5 10.1667,87.5 7.5,87.5C 7.83333,82.1667 8.16667,76.8333 8.5,71.5C 5.5,71.5 2.5,71.5 -0.5,71.5C -0.5,60.8333 -0.5,50.1667 -0.5,39.5C 2.16667,39.5 4.83333,39.5 7.5,39.5C 7.5,36.8333 7.5,34.1667 7.5,31.5C 10.1667,31.5 12.8333,31.5 15.5,31.5C 15.5,28.8333 15.5,26.1667 15.5,23.5C 18.1667,23.5 20.8333,23.5 23.5,23.5C 23.5,20.8333 23.5,18.1667 23.5,15.5C 26.1667,15.5 28.8333,15.5 31.5,15.5C 31.5,12.1667 31.5,8.83333 31.5,5.5C 36.8333,6.16667 42.1667,6.83333 47.5,7.5C 47.5,4.83333 47.5,2.16667 47.5,-0.5 Z"/></g>
<g><path style="opacity:1" fill="#151417" d="M 61.5,27.5 C 61.5,28.8333 61.5,30.1667 61.5,31.5C 60.7263,34.1411 60.393,36.8078 60.5,39.5C 59.0222,28.8927 57.8555,28.8927 57,39.5C 56.433,36.8323 55.933,34.1656 55.5,31.5C 52.8333,31.5 50.1667,31.5 47.5,31.5C 47.5,34.1667 47.5,36.8333 47.5,39.5C 46.1667,39.5 44.8333,39.5 43.5,39.5C 43.5,42.1667 43.5,44.8333 43.5,47.5C 42.1667,47.5 40.8333,47.5 39.5,47.5C 39.5,50.1667 39.5,52.8333 39.5,55.5C 35.5,55.5 31.5,55.5 27.5,55.5C 27.5,60.8333 27.5,66.1667 27.5,71.5C 31.5,71.5 35.5,71.5 39.5,71.5C 39.5,74.1667 39.5,76.8333 39.5,79.5C 42.5,79.5 45.5,79.5 48.5,79.5C 48.7006,82.7281 48.3672,85.8948 47.5,89C 48.3542,89.5739 49.3542,90.2406 50.5,91C 50.1802,92.6532 49.1802,93.6532 47.5,94C 49.4727,94.4955 51.4727,94.6621 53.5,94.5C 50.7326,96.6042 47.7326,98.2709 44.5,99.5C 42.8297,99.7512 41.3297,100.418 40,101.5C 38.3055,99.7604 37.1389,97.7604 36.5,95.5C 34.4727,95.6621 32.4727,95.4955 30.5,95C 25.1667,92.6667 25.1667,90.3333 30.5,88C 28.1902,87.5034 25.8568,87.3367 23.5,87.5C 23.8333,82.1667 24.1667,76.8333 24.5,71.5C 21.1667,71.5 17.8333,71.5 14.5,71.5C 13.5885,66.6233 14.9218,62.6233 18.5,59.5C 17.7366,58.2807 16.7366,57.2807 15.5,56.5C 16.6888,55.5713 18.0222,55.238 19.5,55.5C 19.5,52.8333 19.5,50.1667 19.5,47.5C 20.8333,47.5 22.1667,47.5 23.5,47.5C 23.8333,58.1667 24.1667,58.1667 24.5,47.5C 26.8333,47.5 29.1667,47.5 31.5,47.5C 31.5,44.8333 31.5,42.1667 31.5,39.5C 30.1667,39.5 28.8333,39.5 27.5,39.5C 27.5,36.8333 27.5,34.1667 27.5,31.5C 31.5,31.5 35.5,31.5 39.5,31.5C 39.5,28.8333 39.5,26.1667 39.5,23.5C 44.8437,23.334 50.1771,23.5006 55.5,24C 56.0253,24.6924 56.6919,25.1924 57.5,25.5C 60.3879,22.5379 61.7213,23.2046 61.5,27.5 Z"/></g>
<g><path style="opacity:1" fill="#0e090c" d="M 76.5,24.5 C 75.453,22.8494 74.2863,21.1828 73,19.5C 70.8739,22.624 71.0406,25.624 73.5,28.5C 72.9646,30.2705 72.1313,30.6039 71,29.5C 69.2855,33.7815 69.1188,38.1148 70.5,42.5C 68.9871,47.3981 67.9871,52.3981 67.5,57.5C 69.8855,65.5255 72.8855,73.1922 76.5,80.5C 78.7354,80.7947 80.7354,80.4614 82.5,79.5C 84.717,78.6314 87.0504,78.298 89.5,78.5C 90.1667,79.1667 90.8333,79.8333 91.5,80.5C 91.5,80.8333 91.5,81.1667 91.5,81.5C 90.8333,81.5 90.1667,81.5 89.5,81.5C 86.6697,81.9628 84.003,82.6295 81.5,83.5C 80.5,83.5 79.5,83.5 78.5,83.5C 79.4184,87.2116 79.4184,90.8782 78.5,94.5C 80.1342,97.8319 82.8009,99.9985 86.5,101C 85.0448,103.016 83.0448,103.849 80.5,103.5C 76.2812,98.0988 73.1146,92.0988 71,85.5C 70.0153,87.3659 69.5153,89.3659 69.5,91.5C 70.4087,96.0499 71.4087,100.55 72.5,105C 71.2559,105.456 70.4226,104.956 70,103.5C 69.1376,105.087 68.4709,106.754 68,108.5C 67.6667,107.5 67.3333,106.5 67,105.5C 66.7489,107.433 66.2489,109.266 65.5,111C 66.0603,116.427 66.227,121.927 66,127.5C 66.3333,125.167 66.6667,122.833 67,120.5C 68.7666,131.706 71.4333,142.706 75,153.5C 75.6667,155.5 75.6667,157.5 75,159.5C 70.9062,151.904 67.5729,143.904 65,135.5C 64.4516,127.06 63.285,118.726 61.5,110.5C 61.1667,110.167 60.8333,109.833 60.5,109.5C 59.147,110.685 57.9803,112.019 57,113.5C 55.9025,112.033 54.4025,111.199 52.5,111C 52.8333,110.667 53.1667,110.333 53.5,110C 52.2068,109.51 50.8734,109.343 49.5,109.5C 49.2129,114.798 49.8795,119.964 51.5,125C 51.519,126.792 51.1857,127.292 50.5,126.5C 49.0197,121.791 48.0197,116.957 47.5,112C 47.7483,110.284 48.415,108.784 49.5,107.5C 48.2243,106.355 46.891,106.355 45.5,107.5C 44.0413,109.583 42.7079,111.75 41.5,114C 40.2068,114.49 38.8734,114.657 37.5,114.5C 38.1667,112.5 38.8333,110.5 39.5,108.5C 37.4727,108.338 35.4727,108.505 33.5,109C 34.3279,109.915 35.3279,110.581 36.5,111C 33.4786,111.849 30.4786,112.683 27.5,113.5C 27.5,111.167 27.5,108.833 27.5,106.5C 27.4125,103.402 27.9125,103.068 29,105.5C 29.85,104.576 30.85,104.576 32,105.5C 36.3684,103.685 40.5351,101.685 44.5,99.5C 47.7326,98.2709 50.7326,96.6042 53.5,94.5C 58.4202,93.1306 63.0869,90.9639 67.5,88C 68.5728,86.6871 69.2395,85.1871 69.5,83.5C 68.1476,76.2225 67.1476,68.8891 66.5,61.5C 65.914,61.7093 65.414,62.0426 65,62.5C 62.324,58.5199 63.1573,55.5199 67.5,53.5C 63.8273,51.231 62.8273,48.231 64.5,44.5C 63.9408,39.9386 62.9408,35.6052 61.5,31.5C 61.5,30.1667 61.5,28.8333 61.5,27.5C 62.29,26.3915 62.79,25.0581 63,23.5C 65.5134,22.152 67.3468,20.152 68.5,17.5C 72.7763,15.048 76.443,12.7147 79.5,10.5C 81.687,8.31777 83.3536,8.48443 84.5,11C 81.4557,11.3589 81.1224,12.0255 83.5,13C 79.4985,15.8395 77.1652,19.6728 76.5,24.5 Z"/></g>
<g><path style="opacity:1" fill="#131114" d="M 159.5,39.5 C 162.167,39.5 164.833,39.5 167.5,39.5C 167.5,47.5 167.5,55.5 167.5,63.5C 168.833,63.5 170.167,63.5 171.5,63.5C 171.5,66.1667 171.5,68.8333 171.5,71.5C 172.833,71.5 174.167,71.5 175.5,71.5C 175.5,74.1667 175.5,76.8333 175.5,79.5C 172.833,79.5 170.167,79.5 167.5,79.5C 167.5,84.8333 167.5,90.1667 167.5,95.5C 161.158,95.3338 154.825,95.5005 148.5,96C 147.294,97.0177 147.627,97.5177 149.5,97.5C 152.783,96.673 156.116,96.3396 159.5,96.5C 159.5,98.1667 159.5,99.8333 159.5,101.5C 154.367,101.921 149.534,100.921 145,98.5C 144.5,98.8333 144,99.1667 143.5,99.5C 147.617,101.937 151.95,103.603 156.5,104.5C 155.584,104.982 154.584,105.315 153.5,105.5C 149.53,104.232 145.53,103.065 141.5,102C 137.935,99.2534 134.268,96.7534 130.5,94.5C 131.511,91.9818 132.844,91.9818 134.5,94.5C 135.711,93.7261 135.711,92.8928 134.5,92C 137.482,91.502 140.482,91.3354 143.5,91.5C 143.5,76.8333 143.5,62.1667 143.5,47.5C 138.167,47.5 132.833,47.5 127.5,47.5C 126.583,40.7501 125.25,34.0835 123.5,27.5C 123.833,26.1667 124.167,24.8333 124.5,23.5C 125.318,26.1071 125.818,28.7737 126,31.5C 126.333,30.8333 126.667,30.1667 127,29.5C 128.18,30.6841 129.68,31.3507 131.5,31.5C 134.167,30.8333 136.833,30.1667 139.5,29.5C 143.407,30.8112 147.407,31.4778 151.5,31.5C 151.5,34.1667 151.5,36.8333 151.5,39.5C 154.167,39.5 156.833,39.5 159.5,39.5 Z"/></g>
<g><path style="opacity:1" fill="#291b19" d="M 81.5,25.5 C 81.4614,26.7562 81.9614,27.7562 83,28.5C 83.6667,24.5 84.3333,24.5 85,28.5C 86.0024,24.8359 87.8358,21.6692 90.5,19C 88.1428,17.78 88.4761,16.9467 91.5,16.5C 94.8683,18.059 98.5349,18.8923 102.5,19C 101.552,19.4828 100.552,19.6495 99.5,19.5C 99.7286,21.433 100.562,23.0997 102,24.5C 103.507,23.4652 105.007,23.6319 106.5,25C 105.167,25.6667 105.167,26.3333 106.5,27C 105.167,27.6667 103.833,28.3333 102.5,29C 103.448,29.4828 104.448,29.6495 105.5,29.5C 105.64,31.1238 104.973,32.2904 103.5,33C 104.056,33.3826 104.389,33.8826 104.5,34.5C 100.472,34.4817 97.305,32.815 95,29.5C 94.6667,29.8333 94.3333,30.1667 94,30.5C 93.6667,29.1667 93.3333,27.8333 93,26.5C 92,27.8333 91,29.1667 90,30.5C 89.0862,29.3463 88.2529,29.513 87.5,31C 85.3138,31.0613 83.3138,31.2279 81.5,31.5C 81.5875,28.4017 81.0875,28.0684 80,30.5C 77.5612,25.3375 78.2278,20.6708 82,16.5C 81.0463,19.2966 80.213,22.2966 79.5,25.5C 79.6667,26.1667 79.8333,26.8333 80,27.5C 80.2784,26.5842 80.7784,25.9175 81.5,25.5 Z"/></g>
<g><path style="opacity:1" fill="#63453f" d="M 104.5,34.5 C 106.527,34.3379 108.527,34.5045 110.5,35C 111.056,35.3826 111.389,35.8826 111.5,36.5C 104.857,35.7875 98.1908,35.4542 91.5,35.5C 87.9009,34.6561 84.2343,34.3227 80.5,34.5C 80.3924,38.247 80.8924,41.9137 82,45.5C 83.8415,47.1591 85.0081,49.1591 85.5,51.5C 85.1667,51.5 84.8333,51.5 84.5,51.5C 80.7054,51.3103 77.3721,50.3103 74.5,48.5C 74.9396,45.038 74.9396,41.3713 74.5,37.5C 75.5,37.5 76.5,37.5 77.5,37.5C 77.8333,35.5 78.1667,33.5 78.5,31.5C 79.5,31.5 80.5,31.5 81.5,31.5C 83.3138,31.2279 85.3138,31.0613 87.5,31C 88.2529,29.513 89.0862,29.3463 90,30.5C 91,29.1667 92,27.8333 93,26.5C 93.3333,27.8333 93.6667,29.1667 94,30.5C 94.3333,30.1667 94.6667,29.8333 95,29.5C 97.305,32.815 100.472,34.4817 104.5,34.5 Z"/></g>
<g><path style="opacity:1" fill="#553b37" d="M 115.5,52.5 C 114.574,57.6656 114.574,62.6656 115.5,67.5C 115.44,68.0431 115.107,68.3764 114.5,68.5C 113.824,67.3984 113.158,66.3984 112.5,65.5C 113.679,56.5176 113.679,47.5176 112.5,38.5C 114.124,38.3601 115.29,39.0267 116,40.5C 116.249,39.376 116.749,38.376 117.5,37.5C 117.833,38.1667 118.167,38.8333 118.5,39.5C 117.226,42.367 116.393,45.367 116,48.5C 115.667,47.5 115.333,46.5 115,45.5C 114.204,48.0385 114.371,50.3718 115.5,52.5 Z"/></g>
<g><path style="opacity:1" fill="#ebb9a9" d="M 91.5,35.5 C 98.1908,35.4542 104.857,35.7875 111.5,36.5C 111.5,37.1667 111.5,37.8333 111.5,38.5C 111.806,42.7473 111.139,46.7473 109.5,50.5C 106.615,50.1936 103.948,50.5269 101.5,51.5C 99.5853,51.2155 97.9187,51.5489 96.5,52.5C 93.068,51.379 89.9013,50.379 87,49.5C 87.2984,46.6234 87.1317,43.79 86.5,41C 86.9054,40.0546 87.572,39.3879 88.5,39C 88.1667,38.6667 87.8333,38.3333 87.5,38C 89.3197,37.7996 90.653,36.9663 91.5,35.5 Z"/></g>
<g><path style="opacity:1" fill="#211614" d="M 76.5,24.5 C 76.3444,27.0661 76.6777,29.5661 77.5,32C 76.9681,34.0197 75.6348,34.853 73.5,34.5C 73.3531,39.2142 73.6864,43.8809 74.5,48.5C 77.3721,50.3103 80.7054,51.3103 84.5,51.5C 87.0772,53.2244 88.5772,55.5578 89,58.5C 88.2904,57.0267 87.1238,56.3601 85.5,56.5C 83.4357,56.687 81.4357,57.187 79.5,58C 80.8882,58.8893 80.7215,59.3893 79,59.5C 76.9011,58.7135 74.7345,58.3801 72.5,58.5C 72.6997,61.6296 73.3664,64.6296 74.5,67.5C 75.2561,71.6301 76.2561,75.6301 77.5,79.5C 79.1667,79.5 80.8333,79.5 82.5,79.5C 80.7354,80.4614 78.7354,80.7947 76.5,80.5C 72.8855,73.1922 69.8855,65.5255 67.5,57.5C 67.9871,52.3981 68.9871,47.3981 70.5,42.5C 69.1188,38.1148 69.2855,33.7815 71,29.5C 72.1313,30.6039 72.9646,30.2705 73.5,28.5C 71.0406,25.624 70.8739,22.624 73,19.5C 74.2863,21.1828 75.453,22.8494 76.5,24.5 Z"/></g>
<g><path style="opacity:1" fill="#b5887c" d="M 91.5,35.5 C 90.653,36.9663 89.3197,37.7996 87.5,38C 87.8333,38.3333 88.1667,38.6667 88.5,39C 87.572,39.3879 86.9054,40.0546 86.5,41C 87.1317,43.79 87.2984,46.6234 87,49.5C 89.9013,50.379 93.068,51.379 96.5,52.5C 96.4431,53.609 96.1098,54.609 95.5,55.5C 94.1779,55.33 93.0113,55.6634 92,56.5C 91.8325,61.1725 92.1658,65.8391 93,70.5C 95.0693,71.2638 97.236,71.7638 99.5,72C 98.7476,72.6708 98.4142,73.5041 98.5,74.5C 96.1141,72.9245 93.4475,71.9245 90.5,71.5C 90.6661,65.8236 90.4994,60.1569 90,54.5C 89.4115,52.1367 87.9115,51.1367 85.5,51.5C 85.0081,49.1591 83.8415,47.1591 82,45.5C 80.8924,41.9137 80.3924,38.247 80.5,34.5C 84.2343,34.3227 87.9009,34.6561 91.5,35.5 Z"/></g>
<g><path style="opacity:1" fill="#402521" d="M 101.5,51.5 C 104.833,51.5 108.167,51.5 111.5,51.5C 111.725,55.0562 110.892,55.3895 109,52.5C 107.775,52.8623 106.609,53.3623 105.5,54C 106.672,54.4186 107.672,55.0853 108.5,56C 105.183,56.4983 101.85,56.665 98.5,56.5C 97.209,56.7373 96.209,56.404 95.5,55.5C 96.1098,54.609 96.4431,53.609 96.5,52.5C 97.9187,51.5489 99.5853,51.2155 101.5,51.5 Z"/></g>
<g><path style="opacity:1" fill="#181719" d="M 61.5,31.5 C 62.9408,35.6052 63.9408,39.9386 64.5,44.5C 62.8273,48.231 63.8273,51.231 67.5,53.5C 63.1573,55.5199 62.324,58.5199 65,62.5C 65.414,62.0426 65.914,61.7093 66.5,61.5C 67.1476,68.8891 68.1476,76.2225 69.5,83.5C 69.2395,85.1871 68.5728,86.6871 67.5,88C 63.0869,90.9639 58.4202,93.1306 53.5,94.5C 51.4727,94.6621 49.4727,94.4955 47.5,94C 49.1802,93.6532 50.1802,92.6532 50.5,91C 49.3542,90.2406 48.3542,89.5739 47.5,89C 48.3672,85.8948 48.7006,82.7281 48.5,79.5C 45.5,79.5 42.5,79.5 39.5,79.5C 39.5,76.8333 39.5,74.1667 39.5,71.5C 35.5,71.5 31.5,71.5 27.5,71.5C 27.5,66.1667 27.5,60.8333 27.5,55.5C 31.5,55.5 35.5,55.5 39.5,55.5C 39.5,52.8333 39.5,50.1667 39.5,47.5C 40.8333,47.5 42.1667,47.5 43.5,47.5C 43.5,44.8333 43.5,42.1667 43.5,39.5C 44.8333,39.5 46.1667,39.5 47.5,39.5C 47.5,36.8333 47.5,34.1667 47.5,31.5C 50.1667,31.5 52.8333,31.5 55.5,31.5C 55.933,34.1656 56.433,36.8323 57,39.5C 57.8555,28.8927 59.0222,28.8927 60.5,39.5C 60.393,36.8078 60.7263,34.1411 61.5,31.5 Z"/></g>
<g><path style="opacity:1" fill="#d6b0aa" d="M 115.5,67.5 C 114.574,62.6656 114.574,57.6656 115.5,52.5C 116.307,49.9128 117.641,49.4128 119.5,51C 117.579,52.7034 117.579,54.7034 119.5,57C 118.453,60.6457 117.12,64.1457 115.5,67.5 Z"/></g>
<g><path style="opacity:1" fill="#6a4e49" d="M 85.5,56.5 C 87.4318,57.9764 87.7652,59.6431 86.5,61.5C 86.0919,60.3569 85.4252,59.3569 84.5,58.5C 82.677,59.7472 80.677,60.4139 78.5,60.5C 76.7483,60.4176 75.7483,61.2509 75.5,63C 76.4965,64.5955 77.6632,66.0955 79,67.5C 79.498,70.4816 79.6646,73.4816 79.5,76.5C 78.6017,73.0933 76.935,70.0933 74.5,67.5C 73.3664,64.6296 72.6997,61.6296 72.5,58.5C 74.7345,58.3801 76.9011,58.7135 79,59.5C 80.7215,59.3893 80.8882,58.8893 79.5,58C 81.4357,57.187 83.4357,56.687 85.5,56.5 Z"/></g>
<g><path style="opacity:1" fill="#161316" d="M 127.5,47.5 C 132.833,47.5 138.167,47.5 143.5,47.5C 143.5,62.1667 143.5,76.8333 143.5,91.5C 140.482,91.3354 137.482,91.502 134.5,92C 135.711,92.8928 135.711,93.7261 134.5,94.5C 132.844,91.9818 131.511,91.9818 130.5,94.5C 126.543,92.9138 122.543,91.2471 118.5,89.5C 117.262,93.3107 116.596,93.3107 116.5,89.5C 116.142,87.2988 114.808,85.9655 112.5,85.5C 111.893,85.6236 111.56,85.9569 111.5,86.5C 110.032,92.7772 107.032,98.1105 102.5,102.5C 99.7743,102.264 97.441,103.097 95.5,105C 95.8333,105.333 96.1667,105.667 96.5,106C 94.2903,107.509 92.457,109.342 91,111.5C 90.883,120.019 89.0496,128.186 85.5,136C 86.0779,137.417 87.0779,138.25 88.5,138.5C 89.6246,139.014 90.7913,139.347 92,139.5C 93.6667,137.833 95.3333,136.167 97,134.5C 97.2186,139.582 97.7186,144.582 98.5,149.5C 98.5,152.833 98.5,156.167 98.5,159.5C 94.0688,161.595 91.0688,164.929 89.5,169.5C 88.325,169.719 87.325,169.386 86.5,168.5C 88.1392,167.084 88.9725,165.417 89,163.5C 87.1978,164.789 86.0312,166.456 85.5,168.5C 84.5265,165.702 83.8598,162.702 83.5,159.5C 84.3645,153.532 84.6979,147.532 84.5,141.5C 84.6123,134.82 84.9457,128.153 85.5,121.5C 86.1471,120.726 86.4805,119.726 86.5,118.5C 85.9364,116.091 85.1031,113.758 84,111.5C 81.6349,110.711 79.4682,109.544 77.5,108C 78.4162,107.626 79.2496,107.126 80,106.5C 79.8915,105.231 80.0582,104.231 80.5,103.5C 83.0448,103.849 85.0448,103.016 86.5,101C 82.8009,99.9985 80.1342,97.8319 78.5,94.5C 80.0605,92.3647 81.7271,92.198 83.5,94C 82.376,94.2492 81.376,94.7492 80.5,95.5C 80.9377,96.5063 81.6043,96.5063 82.5,95.5C 83.8847,99.3779 85.0514,99.3779 86,95.5C 86.5182,98.0226 87.8515,100.023 90,101.5C 90.7589,99.3651 92.2589,98.0318 94.5,97.5C 94.8586,98.9172 96.0253,100.25 98,101.5C 101.646,100.227 104.646,97.5606 107,93.5C 107.498,91.4731 107.331,89.4731 106.5,87.5C 106.818,86.3527 107.484,85.5194 108.5,85C 107.833,84.6667 107.167,84.3333 106.5,84C 109.19,83.6655 109.857,82.4988 108.5,80.5C 111.331,77.9122 112.665,74.5788 112.5,70.5C 114.17,70.2488 115.67,69.5822 117,68.5C 117.333,68.8333 117.667,69.1667 118,69.5C 122.211,62.7776 124.045,55.4443 123.5,47.5C 124.833,47.5 126.167,47.5 127.5,47.5 Z"/></g>
<g><path style="opacity:1" fill="#c08d82" d="M 86.5,61.5 C 83.0524,72.4425 80.3858,72.1092 78.5,60.5C 80.677,60.4139 82.677,59.7472 84.5,58.5C 85.4252,59.3569 86.0919,60.3569 86.5,61.5 Z"/></g>
<g><path style="opacity:1" fill="#eebcae" d="M 95.5,55.5 C 96.209,56.404 97.209,56.7373 98.5,56.5C 99.0782,58.3802 100.412,59.3802 102.5,59.5C 104.682,59.3028 106.682,58.6361 108.5,57.5C 110.5,57.5 111.5,58.5 111.5,60.5C 111.182,61.6473 110.516,62.4806 109.5,63C 109.957,63.414 110.291,63.914 110.5,64.5C 108.797,67.9063 107.13,71.2397 105.5,74.5C 103.5,74.5 101.5,74.5 99.5,74.5C 99.1667,74.5 98.8333,74.5 98.5,74.5C 98.4142,73.5041 98.7476,72.6708 99.5,72C 97.236,71.7638 95.0693,71.2638 93,70.5C 92.1658,65.8391 91.8325,61.1725 92,56.5C 93.0113,55.6634 94.1779,55.33 95.5,55.5 Z"/></g>
<g><path style="opacity:1" fill="#926b63" d="M 78.5,60.5 C 80.3858,72.1092 83.0524,72.4425 86.5,61.5C 85.8333,66.1667 85.1667,70.8333 84.5,75.5C 82.7839,75.6287 81.1172,75.962 79.5,76.5C 79.6646,73.4816 79.498,70.4816 79,67.5C 77.6632,66.0955 76.4965,64.5955 75.5,63C 75.7483,61.2509 76.7483,60.4176 78.5,60.5 Z"/></g>
<g><path style="opacity:1" fill="#543932" d="M 112.5,69.5 C 112.5,69.8333 112.5,70.1667 112.5,70.5C 112.665,74.5788 111.331,77.9122 108.5,80.5C 104.537,80.9111 100.87,80.0778 97.5,78C 98.8331,76.1598 98.6665,75.6598 97,76.5C 93.5901,73.6967 92.0901,74.6967 92.5,79.5C 96.1716,80.0447 95.8383,80.3781 91.5,80.5C 90.8333,79.8333 90.1667,79.1667 89.5,78.5C 90.252,76.8997 91.252,75.3997 92.5,74C 91.244,73.5831 90.5774,72.7498 90.5,71.5C 93.4475,71.9245 96.1141,72.9245 98.5,74.5C 98.8333,74.5 99.1667,74.5 99.5,74.5C 101.412,77.149 104.079,78.4824 107.5,78.5C 107.928,74.756 109.595,71.756 112.5,69.5 Z"/></g>
<g><path style="opacity:1" fill="#c49488" d="M 111.5,38.5 C 111.833,38.5 112.167,38.5 112.5,38.5C 113.679,47.5176 113.679,56.5176 112.5,65.5C 112.5,66.8333 112.5,68.1667 112.5,69.5C 109.595,71.756 107.928,74.756 107.5,78.5C 104.079,78.4824 101.412,77.149 99.5,74.5C 101.5,74.5 103.5,74.5 105.5,74.5C 107.13,71.2397 108.797,67.9063 110.5,64.5C 110.291,63.914 109.957,63.414 109.5,63C 110.516,62.4806 111.182,61.6473 111.5,60.5C 111.5,58.5 110.5,57.5 108.5,57.5C 106.682,58.6361 104.682,59.3028 102.5,59.5C 100.412,59.3802 99.0782,58.3802 98.5,56.5C 101.85,56.665 105.183,56.4983 108.5,56C 107.672,55.0853 106.672,54.4186 105.5,54C 106.609,53.3623 107.775,52.8623 109,52.5C 110.892,55.3895 111.725,55.0562 111.5,51.5C 108.167,51.5 104.833,51.5 101.5,51.5C 103.948,50.5269 106.615,50.1936 109.5,50.5C 111.139,46.7473 111.806,42.7473 111.5,38.5 Z"/></g>
<g><path style="opacity:1" fill="#37221f" d="M 84.5,51.5 C 84.8333,51.5 85.1667,51.5 85.5,51.5C 87.9115,51.1367 89.4115,52.1367 90,54.5C 90.4994,60.1569 90.6661,65.8236 90.5,71.5C 90.5774,72.7498 91.244,73.5831 92.5,74C 91.252,75.3997 90.252,76.8997 89.5,78.5C 87.0504,78.298 84.717,78.6314 82.5,79.5C 80.8333,79.5 79.1667,79.5 77.5,79.5C 76.2561,75.6301 75.2561,71.6301 74.5,67.5C 76.935,70.0933 78.6017,73.0933 79.5,76.5C 81.1172,75.962 82.7839,75.6287 84.5,75.5C 85.1667,70.8333 85.8333,66.1667 86.5,61.5C 87.7652,59.6431 87.4318,57.9764 85.5,56.5C 87.1238,56.3601 88.2904,57.0267 89,58.5C 88.5772,55.5578 87.0772,53.2244 84.5,51.5 Z"/></g>
<g><path style="opacity:1" fill="#c09b97" d="M 89.5,81.5 C 90.1667,81.5 90.8333,81.5 91.5,81.5C 94.7131,81.19 97.7131,81.5233 100.5,82.5C 97.3157,84.4136 93.649,85.0803 89.5,84.5C 89.5,83.5 89.5,82.5 89.5,81.5 Z"/></g>
<g><path style="opacity:1" fill="#503731" d="M 89.5,81.5 C 89.5,82.5 89.5,83.5 89.5,84.5C 93.649,85.0803 97.3157,84.4136 100.5,82.5C 102.195,83.0114 103.861,83.6781 105.5,84.5C 104.273,85.5904 103.44,86.9238 103,88.5C 102.346,87.3044 101.846,87.3044 101.5,88.5C 102.309,90.0709 102.643,91.7376 102.5,93.5C 98.6548,92.6541 94.9881,91.3208 91.5,89.5C 88.6205,90.7952 85.6205,91.4618 82.5,91.5C 82.7711,89.1789 82.1045,87.1789 80.5,85.5C 80.8627,84.8165 81.1961,84.1499 81.5,83.5C 84.003,82.6295 86.6697,81.9628 89.5,81.5 Z"/></g>
<g><path style="opacity:1" fill="#291b19" d="M 108.5,80.5 C 109.857,82.4988 109.19,83.6655 106.5,84C 107.167,84.3333 107.833,84.6667 108.5,85C 107.484,85.5194 106.818,86.3527 106.5,87.5C 107.331,89.4731 107.498,91.4731 107,93.5C 104.646,97.5606 101.646,100.227 98,101.5C 96.0253,100.25 94.8586,98.9172 94.5,97.5C 92.2589,98.0318 90.7589,99.3651 90,101.5C 87.8515,100.023 86.5182,98.0226 86,95.5C 85.0514,99.3779 83.8847,99.3779 82.5,95.5C 81.6043,96.5063 80.9377,96.5063 80.5,95.5C 81.376,94.7492 82.376,94.2492 83.5,94C 81.7271,92.198 80.0605,92.3647 78.5,94.5C 79.4184,90.8782 79.4184,87.2116 78.5,83.5C 79.5,83.5 80.5,83.5 81.5,83.5C 81.1961,84.1499 80.8627,84.8165 80.5,85.5C 82.1045,87.1789 82.7711,89.1789 82.5,91.5C 85.6205,91.4618 88.6205,90.7952 91.5,89.5C 94.9881,91.3208 98.6548,92.6541 102.5,93.5C 102.643,91.7376 102.309,90.0709 101.5,88.5C 101.846,87.3044 102.346,87.3044 103,88.5C 103.44,86.9238 104.273,85.5904 105.5,84.5C 103.861,83.6781 102.195,83.0114 100.5,82.5C 97.7131,81.5233 94.7131,81.19 91.5,81.5C 91.5,81.1667 91.5,80.8333 91.5,80.5C 95.8383,80.3781 96.1716,80.0447 92.5,79.5C 92.0901,74.6967 93.5901,73.6967 97,76.5C 98.6665,75.6598 98.8331,76.1598 97.5,78C 100.87,80.0778 104.537,80.9111 108.5,80.5 Z"/></g>
<g><path style="opacity:1" fill="#e2dada" d="M 111.5,86.5 C 112.117,86.6107 112.617,86.944 113,87.5C 113.419,94.6968 112.919,101.697 111.5,108.5C 111.158,107.662 110.492,107.328 109.5,107.5C 107.066,106.015 104.733,104.348 102.5,102.5C 107.032,98.1105 110.032,92.7772 111.5,86.5 Z"/></g>
<g><path style="opacity:1" fill="#29272f" d="M 116.5,89.5 C 116.596,93.3107 117.262,93.3107 118.5,89.5C 122.543,91.2471 126.543,92.9138 130.5,94.5C 134.268,96.7534 137.935,99.2534 141.5,102C 145.53,103.065 149.53,104.232 153.5,105.5C 154.584,105.315 155.584,104.982 156.5,104.5C 157.5,104.5 158.5,104.5 159.5,104.5C 159.951,109.361 160.951,114.027 162.5,118.5C 161.566,119.772 160.899,121.272 160.5,123C 163.077,126.749 164.077,130.916 163.5,135.5C 162.448,135.351 161.448,135.517 160.5,136C 159,138.833 156.833,141 154,142.5C 154.016,138.975 153.849,135.642 153.5,132.5C 154.627,125.53 155.127,118.53 155,111.5C 154.333,114.167 153.667,114.167 153,111.5C 152.667,113.167 152.333,114.833 152,116.5C 146.781,114.562 141.281,113.229 135.5,112.5C 137.748,111.676 137.914,110.676 136,109.5C 134.581,110.46 133.081,111.293 131.5,112C 133.878,112.974 133.544,113.641 130.5,114C 132.271,114.535 132.604,115.369 131.5,116.5C 130.232,115.572 128.899,115.405 127.5,116C 129.595,116.556 129.762,117.056 128,117.5C 125.572,115.259 123.072,115.092 120.5,117C 125.541,118.008 125.208,118.508 119.5,118.5C 119.966,116.799 119.966,115.299 119.5,114C 121.126,114.195 122.793,114.195 124.5,114C 123.239,111.965 121.572,110.465 119.5,109.5C 116.937,109.737 116.937,110.237 119.5,111C 118.809,112.067 118.309,113.234 118,114.5C 117.496,111.815 116.33,109.481 114.5,107.5C 115.025,106.808 115.692,106.308 116.5,106C 115.643,105.311 114.977,104.478 114.5,103.5C 114.846,102.304 115.346,102.304 116,103.5C 116.694,99.9978 116.194,96.6645 114.5,93.5C 114.668,91.8295 115.335,90.4961 116.5,89.5 Z"/></g>
<g><path style="opacity:1" fill="#292426" d="M 102.5,102.5 C 104.733,104.348 107.066,106.015 109.5,107.5C 109.167,107.5 108.833,107.5 108.5,107.5C 106.088,107.669 103.921,107.003 102,105.5C 95.3037,110.214 93.8037,116.214 97.5,123.5C 97.5,124.833 97.5,126.167 97.5,127.5C 96.1699,129.373 94.1699,131.54 91.5,134C 91.7284,134.399 92.0618,134.565 92.5,134.5C 91.8333,135.5 91.1667,136.5 90.5,137.5C 89.8333,137.833 89.1667,138.167 88.5,138.5C 87.0779,138.25 86.0779,137.417 85.5,136C 89.0496,128.186 90.883,120.019 91,111.5C 92.457,109.342 94.2903,107.509 96.5,106C 96.1667,105.667 95.8333,105.333 95.5,105C 97.441,103.097 99.7743,102.264 102.5,102.5 Z"/></g>
<g><path style="opacity:1" fill="#8d878a" d="M 109.5,107.5 C 110.492,107.328 111.158,107.662 111.5,108.5C 111.822,114.358 111.489,120.025 110.5,125.5C 110.789,119.409 110.455,113.409 109.5,107.5 Z"/></g>
<g><path style="opacity:1" fill="#0d0b0e" d="M -0.5,71.5 C 2.5,71.5 5.5,71.5 8.5,71.5C 8.16667,76.8333 7.83333,82.1667 7.5,87.5C 10.1667,87.5 12.8333,87.5 15.5,87.5C 15.5,90.1667 15.5,92.8333 15.5,95.5C 18.1667,95.5 20.8333,95.5 23.5,95.5C 23.5,98.1667 23.5,100.833 23.5,103.5C 20.7531,103.187 18.0865,103.52 15.5,104.5C 18.627,104.98 21.4604,105.98 24,107.5C 25.0437,106.377 25.7104,105.044 26,103.5C 26.4828,104.448 26.6495,105.448 26.5,106.5C 25.2395,115.155 25.2395,123.822 26.5,132.5C 25.7321,131.737 25.2321,130.737 25,129.5C 24.6667,130.167 24.3333,130.833 24,131.5C 23.2547,129.797 22.4214,128.13 21.5,126.5C 22.2798,125.051 22.9465,123.551 23.5,122C 23.0187,119.626 22.852,117.126 23,114.5C 20.1242,118.326 18.6242,122.66 18.5,127.5C 17.5,127.5 16.5,127.5 15.5,127.5C 15.4249,130.206 15.0916,132.873 14.5,135.5C 9.5,135.5 4.5,135.5 -0.5,135.5C -0.5,114.167 -0.5,92.8333 -0.5,71.5 Z"/></g>
<g><path style="opacity:1" fill="#333039" d="M 111.5,86.5 C 111.56,85.9569 111.893,85.6236 112.5,85.5C 114.808,85.9655 116.142,87.2988 116.5,89.5C 115.335,90.4961 114.668,91.8295 114.5,93.5C 116.194,96.6645 116.694,99.9978 116,103.5C 115.346,102.304 114.846,102.304 114.5,103.5C 114.977,104.478 115.643,105.311 116.5,106C 115.692,106.308 115.025,106.808 114.5,107.5C 116.33,109.481 117.496,111.815 118,114.5C 118.309,113.234 118.809,112.067 119.5,111C 116.937,110.237 116.937,109.737 119.5,109.5C 121.572,110.465 123.239,111.965 124.5,114C 122.793,114.195 121.126,114.195 119.5,114C 119.966,115.299 119.966,116.799 119.5,118.5C 125.208,118.508 125.541,118.008 120.5,117C 123.072,115.092 125.572,115.259 128,117.5C 129.762,117.056 129.595,116.556 127.5,116C 128.899,115.405 130.232,115.572 131.5,116.5C 132.604,115.369 132.271,114.535 130.5,114C 133.544,113.641 133.878,112.974 131.5,112C 133.081,111.293 134.581,110.46 136,109.5C 137.914,110.676 137.748,111.676 135.5,112.5C 141.281,113.229 146.781,114.562 152,116.5C 152.333,114.833 152.667,113.167 153,111.5C 153.667,114.167 154.333,114.167 155,111.5C 155.127,118.53 154.627,125.53 153.5,132.5C 153.167,134.5 152.833,136.5 152.5,138.5C 151.5,138.5 150.5,138.5 149.5,138.5C 149.719,137.325 149.386,136.325 148.5,135.5C 148.563,136.66 148.23,137.994 147.5,139.5C 143.723,140.052 141.056,142.052 139.5,145.5C 140.248,147.416 140.248,149.416 139.5,151.5C 133.538,152.829 127.538,154.162 121.5,155.5C 121.025,154.08 119.525,153.08 117,152.5C 115.715,152.95 114.548,153.617 113.5,154.5C 112.667,153.5 111.833,152.5 111,151.5C 110.262,148.009 109.429,144.675 108.5,141.5C 109.167,136.167 109.833,130.833 110.5,125.5C 111.489,120.025 111.822,114.358 111.5,108.5C 112.919,101.697 113.419,94.6968 113,87.5C 112.617,86.944 112.117,86.6107 111.5,86.5 Z"/></g>
<g><path style="opacity:1" fill="#7a7275" d="M 85.5,121.5 C 84.9457,128.153 84.6123,134.82 84.5,141.5C 83.671,134.011 83.171,126.344 83,118.5C 82.3292,117.748 81.4959,117.414 80.5,117.5C 80.5858,116.504 80.2524,115.671 79.5,115C 77.925,115.379 76.425,115.212 75,114.5C 75.1554,116.811 75.1554,119.144 75,121.5C 74.1376,119.913 73.4709,118.246 73,116.5C 72.6924,117.308 72.1924,117.975 71.5,118.5C 70.8319,116.031 70.1653,113.698 69.5,111.5C 69.56,110.957 69.8933,110.624 70.5,110.5C 72.2832,114.403 73.4498,114.07 74,109.5C 74.8333,110.5 75.6667,111.5 76.5,112.5C 78.198,111.319 79.8647,111.319 81.5,112.5C 82.4803,113.981 83.647,115.315 85,116.5C 85.4935,118.134 85.6602,119.801 85.5,121.5 Z"/></g>
<g><path style="opacity:1" fill="#d9d0d0" d="M 108.5,107.5 C 108.833,107.5 109.167,107.5 109.5,107.5C 110.455,113.409 110.789,119.409 110.5,125.5C 109.732,126.263 109.232,127.263 109,128.5C 108.667,128.167 108.333,127.833 108,127.5C 107.424,129.377 107.591,131.211 108.5,133C 108.056,134.762 107.556,134.595 107,132.5C 106.036,136.796 105.203,141.13 104.5,145.5C 103.252,146.04 102.085,146.707 101,147.5C 100.536,146.906 100.369,146.239 100.5,145.5C 100.5,142.167 100.5,138.833 100.5,135.5C 101.792,128.954 101.626,122.287 100,115.5C 99.6667,116.5 99.3333,117.5 99,118.5C 98.1251,117.127 97.6251,115.627 97.5,114C 98.3784,112.2 99.045,110.367 99.5,108.5C 102.592,109.352 105.592,109.018 108.5,107.5 Z"/></g>
<g><path style="opacity:1" fill="#a49b9f" d="M 69.5,111.5 C 70.1653,113.698 70.8319,116.031 71.5,118.5C 72.1924,117.975 72.6924,117.308 73,116.5C 73.4709,118.246 74.1376,119.913 75,121.5C 75.1554,119.144 75.1554,116.811 75,114.5C 76.425,115.212 77.925,115.379 79.5,115C 80.2524,115.671 80.5858,116.504 80.5,117.5C 77.6913,117.588 76.358,119.088 76.5,122C 77.4013,126.809 78.068,131.642 78.5,136.5C 77.6618,136.842 77.3284,137.508 77.5,138.5C 76.2485,132.857 74.9151,127.19 73.5,121.5C 71.8212,121.285 70.8212,121.952 70.5,123.5C 69.5166,119.702 69.1832,115.702 69.5,111.5 Z"/></g>
<g><path style="opacity:1" fill="#b0a7a8" d="M 108.5,107.5 C 105.592,109.018 102.592,109.352 99.5,108.5C 99.045,110.367 98.3784,112.2 97.5,114C 97.6251,115.627 98.1251,117.127 99,118.5C 99.3333,117.5 99.6667,116.5 100,115.5C 101.626,122.287 101.792,128.954 100.5,135.5C 100.167,135.5 99.8333,135.5 99.5,135.5C 99.6659,130.489 99.4993,125.489 99,120.5C 98.6667,120.167 98.3333,119.833 98,119.5C 97.51,120.793 97.3433,122.127 97.5,123.5C 93.8037,116.214 95.3037,110.214 102,105.5C 103.921,107.003 106.088,107.669 108.5,107.5 Z"/></g>
<g><path style="opacity:1" fill="#cdc3c6" d="M 80.5,117.5 C 81.4959,117.414 82.3292,117.748 83,118.5C 83.171,126.344 83.671,134.011 84.5,141.5C 84.6979,147.532 84.3645,153.532 83.5,159.5C 83.8598,162.702 84.5265,165.702 85.5,168.5C 85.6567,169.873 85.49,171.207 85,172.5C 83.8652,170.63 83.0319,168.63 82.5,166.5C 81.5448,164.254 80.8782,161.921 80.5,159.5C 81.1558,158.378 81.4892,157.045 81.5,155.5C 80.7777,149.109 79.7777,142.775 78.5,136.5C 78.068,131.642 77.4013,126.809 76.5,122C 76.358,119.088 77.6913,117.588 80.5,117.5 Z"/></g>
<g><path style="opacity:1" fill="#ece3e5" d="M 99.5,135.5 C 99.6495,136.552 99.4828,137.552 99,138.5C 98.8227,134.644 98.3227,130.977 97.5,127.5C 97.5,126.167 97.5,124.833 97.5,123.5C 97.3433,122.127 97.51,120.793 98,119.5C 98.3333,119.833 98.6667,120.167 99,120.5C 99.4993,125.489 99.6659,130.489 99.5,135.5 Z"/></g>
<g><path style="opacity:1" fill="#090607" d="M 26.5,132.5 C 27.1481,134.086 27.6481,135.753 28,137.5C 28.69,138.738 29.19,138.738 29.5,137.5C 31.8737,144.589 33.3737,151.922 34,159.5C 33.6667,158.833 33.3333,158.167 33,157.5C 31.5822,159.363 29.7489,159.863 27.5,159C 25.3078,157.641 23.6411,155.808 22.5,153.5C 22.1667,154 21.8333,154.5 21.5,155C 24.0233,156.911 24.0233,158.745 21.5,160.5C 24.1522,162.592 24.9855,165.258 24,168.5C 22.6439,167.62 21.1439,167.286 19.5,167.5C 19.5,169.167 19.5,170.833 19.5,172.5C 18.5,172.5 17.5,172.5 16.5,172.5C 16.5086,170.692 16.0086,169.025 15,167.5C 14.9049,173.157 15.0716,178.824 15.5,184.5C 10.1667,184.5 4.83333,184.5 -0.5,184.5C -0.5,168.167 -0.5,151.833 -0.5,135.5C 4.5,135.5 9.5,135.5 14.5,135.5C 15.0916,132.873 15.4249,130.206 15.5,127.5C 16.5,127.5 17.5,127.5 18.5,127.5C 18.6242,122.66 20.1242,118.326 23,114.5C 22.852,117.126 23.0187,119.626 23.5,122C 22.9465,123.551 22.2798,125.051 21.5,126.5C 22.4214,128.13 23.2547,129.797 24,131.5C 24.3333,130.833 24.6667,130.167 25,129.5C 25.2321,130.737 25.7321,131.737 26.5,132.5 Z"/></g>
<g><path style="opacity:1" fill="#c8b9bb" d="M 90.5,137.5 C 91.1667,136.5 91.8333,135.5 92.5,134.5C 93.8979,132.891 95.5646,132.058 97.5,132C 95.5588,134.454 93.2254,136.287 90.5,137.5 Z"/></g>
<g><path style="opacity:1" fill="#61585c" d="M 97.5,127.5 C 98.3227,130.977 98.8227,134.644 99,138.5C 99.4828,137.552 99.6495,136.552 99.5,135.5C 99.8333,135.5 100.167,135.5 100.5,135.5C 100.5,138.833 100.5,142.167 100.5,145.5C 99.8333,146.833 99.1667,148.167 98.5,149.5C 97.7186,144.582 97.2186,139.582 97,134.5C 95.3333,136.167 93.6667,137.833 92,139.5C 90.7913,139.347 89.6246,139.014 88.5,138.5C 89.1667,138.167 89.8333,137.833 90.5,137.5C 93.2254,136.287 95.5588,134.454 97.5,132C 95.5646,132.058 93.8979,132.891 92.5,134.5C 92.0618,134.565 91.7284,134.399 91.5,134C 94.1699,131.54 96.1699,129.373 97.5,127.5 Z"/></g>
<g><path style="opacity:1" fill="#d2cbce" d="M 77.5,138.5 C 78.0465,144.734 79.0465,150.9 80.5,157C 80.4301,157.765 80.0967,158.265 79.5,158.5C 75.4067,147.127 72.4067,135.46 70.5,123.5C 70.8212,121.952 71.8212,121.285 73.5,121.5C 74.9151,127.19 76.2485,132.857 77.5,138.5 Z"/></g>
<g><path style="opacity:1" fill="#1a171d" d="M 26.5,106.5 C 26.8333,106.5 27.1667,106.5 27.5,106.5C 27.5,108.833 27.5,111.167 27.5,113.5C 30.4786,112.683 33.4786,111.849 36.5,111C 35.3279,110.581 34.3279,109.915 33.5,109C 35.4727,108.505 37.4727,108.338 39.5,108.5C 38.8333,110.5 38.1667,112.5 37.5,114.5C 38.8734,114.657 40.2068,114.49 41.5,114C 42.7079,111.75 44.0413,109.583 45.5,107.5C 46.891,106.355 48.2243,106.355 49.5,107.5C 48.415,108.784 47.7483,110.284 47.5,112C 48.0197,116.957 49.0197,121.791 50.5,126.5C 49.1301,126.856 48.1301,127.69 47.5,129C 48.7585,131.185 48.7585,133.352 47.5,135.5C 50.2939,141.714 52.7939,148.048 55,154.5C 56.0736,155.618 57.2402,156.618 58.5,157.5C 58.0688,158.293 57.7355,159.127 57.5,160C 58.4788,162.433 59.1455,164.933 59.5,167.5C 56.7738,163.449 53.1072,160.449 48.5,158.5C 44.6741,154.17 41.0075,149.67 37.5,145C 36.2341,144.691 35.0674,144.191 34,143.5C 31.7958,139.078 30.1291,134.412 29,129.5C 28.3985,132.221 28.5651,134.887 29.5,137.5C 29.19,138.738 28.69,138.738 28,137.5C 27.6481,135.753 27.1481,134.086 26.5,132.5C 25.2395,123.822 25.2395,115.155 26.5,106.5 Z"/></g>
<g><path style="opacity:1" fill="#0b0609" d="M 59.5,167.5 C 62.5472,170.555 65.3805,173.889 68,177.5C 69.1932,179.886 70.3599,182.22 71.5,184.5C 52.8333,184.5 34.1667,184.5 15.5,184.5C 15.0716,178.824 14.9049,173.157 15,167.5C 16.0086,169.025 16.5086,170.692 16.5,172.5C 17.5,172.5 18.5,172.5 19.5,172.5C 19.5,170.833 19.5,169.167 19.5,167.5C 21.1439,167.286 22.6439,167.62 24,168.5C 24.9855,165.258 24.1522,162.592 21.5,160.5C 24.0233,158.745 24.0233,156.911 21.5,155C 21.8333,154.5 22.1667,154 22.5,153.5C 23.6411,155.808 25.3078,157.641 27.5,159C 29.7489,159.863 31.5822,159.363 33,157.5C 33.3333,158.167 33.6667,158.833 34,159.5C 33.3737,151.922 31.8737,144.589 29.5,137.5C 28.5651,134.887 28.3985,132.221 29,129.5C 30.1291,134.412 31.7958,139.078 34,143.5C 35.0674,144.191 36.2341,144.691 37.5,145C 41.0075,149.67 44.6741,154.17 48.5,158.5C 53.1072,160.449 56.7738,163.449 59.5,167.5 Z"/></g>
<g><path style="opacity:1" fill="#60595b" d="M 78.5,136.5 C 79.7777,142.775 80.7777,149.109 81.5,155.5C 81.4892,157.045 81.1558,158.378 80.5,159.5C 79.8333,159.5 79.5,159.167 79.5,158.5C 80.0967,158.265 80.4301,157.765 80.5,157C 79.0465,150.9 78.0465,144.734 77.5,138.5C 77.3284,137.508 77.6618,136.842 78.5,136.5 Z"/></g>
<g><path style="opacity:1" fill="#a9a0a5" d="M 110.5,125.5 C 109.833,130.833 109.167,136.167 108.5,141.5C 106.909,147.126 105.576,152.792 104.5,158.5C 103.596,159.209 103.263,160.209 103.5,161.5C 102.783,159.047 101.616,156.713 100,154.5C 99.8019,156.382 99.3019,158.048 98.5,159.5C 98.5,156.167 98.5,152.833 98.5,149.5C 99.1667,148.167 99.8333,146.833 100.5,145.5C 100.369,146.239 100.536,146.906 101,147.5C 102.085,146.707 103.252,146.04 104.5,145.5C 105.203,141.13 106.036,136.796 107,132.5C 107.556,134.595 108.056,134.762 108.5,133C 107.591,131.211 107.424,129.377 108,127.5C 108.333,127.833 108.667,128.167 109,128.5C 109.232,127.263 109.732,126.263 110.5,125.5 Z"/></g>
<g><path style="opacity:1" fill="#201e25" d="M 152.5,138.5 C 150.721,139.67 149.721,141.336 149.5,143.5C 148.167,143.5 146.833,143.5 145.5,143.5C 146.695,148.429 144.862,151.429 140,152.5C 139.51,153.793 139.343,155.127 139.5,156.5C 138.5,156.5 137.5,156.5 136.5,156.5C 136.649,157.552 136.483,158.552 136,159.5C 133.388,158.946 130.888,159.613 128.5,161.5C 125.887,163.939 123.887,166.772 122.5,170C 118.385,171.205 114.385,172.705 110.5,174.5C 114.053,176.598 113.553,178.265 109,179.5C 108.167,179.333 107.333,179.167 106.5,179C 109.128,174.245 111.628,169.412 114,164.5C 114.749,163.365 114.583,162.365 113.5,161.5C 111.823,164.853 109.657,167.853 107,170.5C 106.133,174.175 104.633,177.508 102.5,180.5C 102.477,178.147 102.144,175.647 101.5,173C 102.534,168.732 103.867,164.566 105.5,160.5C 105.457,159.584 105.124,158.917 104.5,158.5C 105.576,152.792 106.909,147.126 108.5,141.5C 109.429,144.675 110.262,148.009 111,151.5C 111.833,152.5 112.667,153.5 113.5,154.5C 114.548,153.617 115.715,152.95 117,152.5C 119.525,153.08 121.025,154.08 121.5,155.5C 127.538,154.162 133.538,152.829 139.5,151.5C 140.248,149.416 140.248,147.416 139.5,145.5C 141.056,142.052 143.723,140.052 147.5,139.5C 148.23,137.994 148.563,136.66 148.5,135.5C 149.386,136.325 149.719,137.325 149.5,138.5C 150.5,138.5 151.5,138.5 152.5,138.5 Z"/></g>
<g><path style="opacity:1" fill="#141217" d="M 162.5,118.5 C 166.541,129.105 169.207,140.105 170.5,151.5C 171.48,148.914 171.813,146.247 171.5,143.5C 172.833,143.5 174.167,143.5 175.5,143.5C 175.441,148.175 174.107,152.342 171.5,156C 174.042,165.63 174.042,175.13 171.5,184.5C 167.167,184.5 162.833,184.5 158.5,184.5C 156.353,182.53 154.02,180.697 151.5,179C 154.88,178.758 158.046,179.592 161,181.5C 161.5,181.167 162,180.833 162.5,180.5C 159.389,178.192 156.056,176.358 152.5,175C 151.313,173.981 150.313,172.814 149.5,171.5C 152.977,170.928 156.311,170.928 159.5,171.5C 158.91,170.201 157.91,169.368 156.5,169C 153.308,168.803 150.308,167.97 147.5,166.5C 146.417,165.635 146.251,164.635 147,163.5C 148.439,165.014 149.939,165.347 151.5,164.5C 149.833,162.167 147.833,160.167 145.5,158.5C 143.144,160.69 140.644,162.69 138,164.5C 136.011,170.489 132.011,174.489 126,176.5C 123.14,175.488 119.973,175.488 116.5,176.5C 113.987,180.507 110.32,182.84 105.5,183.5C 105.879,180.433 104.879,179.433 102.5,180.5C 104.633,177.508 106.133,174.175 107,170.5C 109.657,167.853 111.823,164.853 113.5,161.5C 114.583,162.365 114.749,163.365 114,164.5C 111.628,169.412 109.128,174.245 106.5,179C 107.333,179.167 108.167,179.333 109,179.5C 113.553,178.265 114.053,176.598 110.5,174.5C 114.385,172.705 118.385,171.205 122.5,170C 123.887,166.772 125.887,163.939 128.5,161.5C 130.888,159.613 133.388,158.946 136,159.5C 136.483,158.552 136.649,157.552 136.5,156.5C 137.5,156.5 138.5,156.5 139.5,156.5C 139.343,155.127 139.51,153.793 140,152.5C 144.862,151.429 146.695,148.429 145.5,143.5C 146.833,143.5 148.167,143.5 149.5,143.5C 149.721,141.336 150.721,139.67 152.5,138.5C 152.833,136.5 153.167,134.5 153.5,132.5C 153.849,135.642 154.016,138.975 154,142.5C 156.833,141 159,138.833 160.5,136C 161.448,135.517 162.448,135.351 163.5,135.5C 164.077,130.916 163.077,126.749 160.5,123C 160.899,121.272 161.566,119.772 162.5,118.5 Z"/></g>
<g><path style="opacity:1" fill="#211e25" d="M 80.5,103.5 C 80.0582,104.231 79.8915,105.231 80,106.5C 79.2496,107.126 78.4162,107.626 77.5,108C 79.4682,109.544 81.6349,110.711 84,111.5C 85.1031,113.758 85.9364,116.091 86.5,118.5C 86.4805,119.726 86.1471,120.726 85.5,121.5C 85.6602,119.801 85.4935,118.134 85,116.5C 83.647,115.315 82.4803,113.981 81.5,112.5C 79.8647,111.319 78.198,111.319 76.5,112.5C 75.6667,111.5 74.8333,110.5 74,109.5C 73.4498,114.07 72.2832,114.403 70.5,110.5C 69.8933,110.624 69.56,110.957 69.5,111.5C 69.1832,115.702 69.5166,119.702 70.5,123.5C 72.4067,135.46 75.4067,147.127 79.5,158.5C 79.5,159.167 79.8333,159.5 80.5,159.5C 80.8782,161.921 81.5448,164.254 82.5,166.5C 81.7784,166.918 81.2784,167.584 81,168.5C 78.4152,167.115 76.4152,167.782 75,170.5C 70.8502,164.275 66.8502,157.941 63,151.5C 62.8333,152 62.6667,152.5 62.5,153C 68.6571,163.489 74.6571,173.989 80.5,184.5C 77.5,184.5 74.5,184.5 71.5,184.5C 70.3599,182.22 69.1932,179.886 68,177.5C 65.3805,173.889 62.5472,170.555 59.5,167.5C 59.1455,164.933 58.4788,162.433 57.5,160C 57.7355,159.127 58.0688,158.293 58.5,157.5C 57.2402,156.618 56.0736,155.618 55,154.5C 52.7939,148.048 50.2939,141.714 47.5,135.5C 48.7585,133.352 48.7585,131.185 47.5,129C 48.1301,127.69 49.1301,126.856 50.5,126.5C 51.1857,127.292 51.519,126.792 51.5,125C 49.8795,119.964 49.2129,114.798 49.5,109.5C 50.8734,109.343 52.2068,109.51 53.5,110C 53.1667,110.333 52.8333,110.667 52.5,111C 54.4025,111.199 55.9025,112.033 57,113.5C 57.9803,112.019 59.147,110.685 60.5,109.5C 60.8333,109.833 61.1667,110.167 61.5,110.5C 63.285,118.726 64.4516,127.06 65,135.5C 67.5729,143.904 70.9062,151.904 75,159.5C 75.6667,157.5 75.6667,155.5 75,153.5C 71.4333,142.706 68.7666,131.706 67,120.5C 66.6667,122.833 66.3333,125.167 66,127.5C 66.227,121.927 66.0603,116.427 65.5,111C 66.2489,109.266 66.7489,107.433 67,105.5C 67.3333,106.5 67.6667,107.5 68,108.5C 68.4709,106.754 69.1376,105.087 70,103.5C 70.4226,104.956 71.2559,105.456 72.5,105C 71.4087,100.55 70.4087,96.0499 69.5,91.5C 69.5153,89.3659 70.0153,87.3659 71,85.5C 73.1146,92.0988 76.2812,98.0988 80.5,103.5 Z"/></g>
<g><path style="opacity:1" fill="#393639" d="M 103.5,161.5 C 99.9959,172.015 98.3292,171.348 98.5,159.5C 99.3019,158.048 99.8019,156.382 100,154.5C 101.616,156.713 102.783,159.047 103.5,161.5 Z"/></g>
<g><path style="opacity:1" fill="#0f0c10" d="M 82.5,166.5 C 83.0319,168.63 83.8652,170.63 85,172.5C 85.49,171.207 85.6567,169.873 85.5,168.5C 86.0312,166.456 87.1978,164.789 89,163.5C 88.9725,165.417 88.1392,167.084 86.5,168.5C 87.325,169.386 88.325,169.719 89.5,169.5C 91.0688,164.929 94.0688,161.595 98.5,159.5C 98.3292,171.348 99.9959,172.015 103.5,161.5C 103.263,160.209 103.596,159.209 104.5,158.5C 105.124,158.917 105.457,159.584 105.5,160.5C 103.867,164.566 102.534,168.732 101.5,173C 102.144,175.647 102.477,178.147 102.5,180.5C 104.879,179.433 105.879,180.433 105.5,183.5C 110.32,182.84 113.987,180.507 116.5,176.5C 119.973,175.488 123.14,175.488 126,176.5C 132.011,174.489 136.011,170.489 138,164.5C 140.644,162.69 143.144,160.69 145.5,158.5C 147.833,160.167 149.833,162.167 151.5,164.5C 149.939,165.347 148.439,165.014 147,163.5C 146.251,164.635 146.417,165.635 147.5,166.5C 150.308,167.97 153.308,168.803 156.5,169C 157.91,169.368 158.91,170.201 159.5,171.5C 156.311,170.928 152.977,170.928 149.5,171.5C 150.313,172.814 151.313,173.981 152.5,175C 156.056,176.358 159.389,178.192 162.5,180.5C 162,180.833 161.5,181.167 161,181.5C 158.046,179.592 154.88,178.758 151.5,179C 154.02,180.697 156.353,182.53 158.5,184.5C 132.5,184.5 106.5,184.5 80.5,184.5C 74.6571,173.989 68.6571,163.489 62.5,153C 62.6667,152.5 62.8333,152 63,151.5C 66.8502,157.941 70.8502,164.275 75,170.5C 76.4152,167.782 78.4152,167.115 81,168.5C 81.2784,167.584 81.7784,166.918 82.5,166.5 Z"/></g>
</svg>
