<?xml version="1.0" standalone="no"?>
<!DOCTYPE svg PUBLIC "-//W3C//DTD SVG 20010904//EN"
 "http://www.w3.org/TR/2001/REC-SVG-20010904/DTD/svg10.dtd">
<svg version="1.0" xmlns="http://www.w3.org/2000/svg"
 width="1920.000000pt" height="1920.000000pt" viewBox="0 0 1920.000000 1920.000000"
 preserveAspectRatio="xMidYMid meet">

<g transform="translate(0.000000,1920.000000) scale(0.100000,-0.100000)"
fill="#000000" stroke="none">
<path d="M11129 14117 c-173 -50 -343 -161 -442 -288 -89 -113 -123 -183 -163
-334 -32 -119 -33 -279 -3 -402 11 -47 24 -92 29 -101 4 -10 21 -44 37 -77 68
-138 158 -243 281 -327 79 -53 128 -77 242 -115 68 -23 90 -26 240 -26 150 0
172 3 241 26 192 64 331 162 447 314 36 46 112 193 112 215 0 8 4 18 9 24 17
16 41 174 41 264 0 237 -80 430 -250 601 -109 110 -192 162 -331 211 -89 30
-103 32 -254 35 -140 2 -170 -1 -236 -20z m411 -227 c100 -33 168 -77 251
-159 250 -249 249 -631 -1 -881 -122 -122 -260 -181 -430 -183 -118 -1 -182
14 -290 66 -152 74 -275 222 -326 392 -13 42 -18 93 -18 170 0 97 4 120 30
195 38 108 86 181 174 264 77 73 181 128 282 151 88 20 244 13 328 -15z"/>
<path d="M13576 12538 l-33 -33 -6 -625 c-4 -344 -7 -813 -7 -1043 l0 -418
-21 6 c-11 4 -91 41 -177 82 -336 161 -422 202 -564 268 l-147 68 -224 451
c-248 498 -274 538 -410 640 -115 86 -195 120 -362 155 -147 31 -279 58 -375
77 -47 9 -125 24 -175 34 -49 10 -128 26 -175 35 -47 9 -125 25 -173 36 -62
13 -128 19 -220 19 -176 0 -218 -14 -582 -194 -373 -185 -850 -420 -1232 -606
-166 -81 -323 -164 -349 -184 -62 -48 -109 -111 -184 -249 -33 -61 -65 -119
-70 -127 -6 -8 -13 -22 -17 -30 -4 -8 -46 -86 -95 -174 -48 -87 -88 -160 -88
-162 0 -3 -40 -75 -88 -162 -48 -86 -93 -168 -100 -182 -7 -14 -33 -61 -58
-105 -72 -127 -107 -204 -119 -264 -8 -40 -16 -55 -26 -52 -8 2 -41 10 -74 19
-33 8 -84 30 -113 49 -29 18 -54 33 -57 33 -3 0 -31 17 -62 37 -32 20 -83 51
-113 68 -30 18 -126 75 -213 128 -87 54 -160 97 -162 97 -3 0 -39 22 -82 49
-43 26 -123 74 -178 106 -55 32 -116 68 -135 80 -167 107 -251 143 -410 176
-215 43 -413 6 -715 -136 -55 -25 -48 -22 -381 -170 -127 -57 -251 -115 -275
-130 -63 -39 -186 -162 -388 -388 -97 -109 -234 -262 -304 -340 -88 -97 -138
-162 -159 -205 -29 -59 -30 -68 -26 -155 5 -112 32 -172 106 -238 113 -101
271 -113 402 -28 25 15 128 119 230 229 102 110 188 200 192 200 4 0 -66 -109
-155 -242 -89 -134 -168 -254 -175 -268 -7 -14 -19 -37 -27 -51 -18 -33 -59
-190 -74 -287 -14 -92 -14 -284 0 -387 11 -82 40 -208 64 -280 7 -22 23 -76
35 -120 12 -44 29 -100 36 -125 45 -150 54 -181 69 -235 33 -118 58 -201 78
-263 25 -74 22 -84 -45 -187 -51 -80 -133 -210 -163 -258 -17 -29 -45 -74
-129 -210 -11 -18 -42 -65 -68 -105 -26 -41 -48 -76 -48 -78 0 -3 -17 -31 -38
-62 -20 -32 -42 -66 -49 -77 -7 -11 -31 -50 -54 -87 -53 -87 -82 -192 -75
-273 15 -169 111 -306 271 -385 45 -23 62 -25 175 -25 118 0 128 2 180 29 124
64 135 77 354 399 36 53 96 141 133 195 37 53 96 140 132 192 36 52 86 125
111 161 140 204 183 274 209 338 58 139 76 305 51 464 -18 116 -50 315 -65
408 -19 109 -20 165 -2 152 6 -6 21 -13 32 -16 11 -3 52 -19 90 -35 39 -16
122 -51 185 -76 63 -26 130 -54 147 -62 18 -8 62 -26 98 -39 36 -14 73 -29 82
-34 10 -5 81 -35 158 -66 82 -33 148 -66 160 -79 11 -13 38 -53 60 -90 22 -36
67 -108 100 -159 33 -52 74 -116 91 -143 143 -228 263 -417 320 -506 24 -37
44 -70 44 -73 0 -3 5 -11 10 -18 6 -7 34 -47 62 -90 82 -125 167 -184 301
-208 128 -23 268 21 363 115 104 105 143 248 110 406 -9 41 -38 101 -85 175
-24 39 -52 84 -61 100 -10 17 -48 80 -85 140 -37 61 -92 151 -122 200 -30 50
-80 133 -113 185 -75 122 -156 257 -197 326 -68 115 -130 201 -188 259 -98 99
-114 108 -645 382 -138 72 -291 153 -299 159 -3 3 45 81 100 161 16 23 29 44
29 48 0 4 13 25 29 48 16 23 118 182 226 352 108 171 210 329 226 352 16 23
29 45 29 50 0 37 32 26 313 -111 248 -121 306 -145 382 -161 50 -10 103 -19
119 -21 17 -1 66 -9 110 -18 75 -14 148 -27 394 -72 209 -38 350 19 423 171
24 50 29 73 29 139 l0 78 48 53 c26 29 60 79 77 111 16 33 59 113 96 179 102
185 139 254 182 335 22 41 79 145 126 230 47 85 102 186 121 223 19 38 44 78
55 90 14 15 129 58 378 141 196 65 359 117 361 115 2 -2 -49 -164 -113 -359
-65 -195 -128 -389 -140 -430 -13 -41 -29 -93 -36 -115 -12 -35 -50 -160 -76
-250 -5 -16 -15 -52 -23 -80 -15 -51 -42 -156 -71 -280 -21 -89 -53 -330 -60
-454 -3 -53 -12 -197 -20 -321 -7 -124 -16 -355 -20 -515 -3 -159 -8 -347 -12
-416 l-6 -127 -254 -273 c-140 -151 -304 -323 -363 -384 -223 -227 -482 -512
-514 -565 -57 -97 -76 -169 -76 -296 0 -167 42 -281 145 -392 111 -120 235
-180 391 -189 50 -3 119 -1 156 6 94 16 210 77 292 152 38 35 271 276 518 534
246 259 535 560 641 671 219 229 243 265 289 438 66 251 100 376 124 466 15
52 30 111 35 130 4 19 17 67 27 105 43 153 74 271 79 293 8 32 17 27 32 -15 8
-21 24 -60 36 -88 13 -27 40 -90 60 -140 21 -49 45 -108 55 -130 10 -22 35
-80 55 -130 21 -49 45 -108 55 -130 10 -22 36 -84 59 -137 l41 -98 0 -870 c0
-586 4 -895 11 -943 28 -181 140 -335 304 -416 314 -155 678 3 787 343 l23 71
0 1085 c0 1177 3 1101 -50 1225 -7 17 -39 98 -70 180 -59 156 -76 199 -118
300 -14 33 -28 71 -32 85 -4 14 -17 50 -30 80 -13 30 -42 105 -65 165 -23 61
-48 124 -55 140 -7 17 -17 44 -23 60 -19 52 -103 269 -112 290 -5 11 -21 52
-35 90 -14 39 -30 79 -35 90 -28 57 -36 100 -29 159 4 34 15 122 24 196 9 74
25 194 35 265 10 72 26 193 35 270 9 77 22 178 29 225 l12 85 109 -165 c188
-284 216 -314 373 -390 247 -120 392 -190 396 -190 3 0 186 -87 416 -197 360
-174 382 -183 464 -183 123 0 239 53 348 162 61 59 87 95 116 155 36 75 37 82
37 188 0 102 -2 115 -31 176 -21 43 -57 93 -103 142 l-71 74 0 134 c0 74 3
231 7 349 l6 215 850 -4 c681 -2 854 -1 874 10 38 20 66 74 60 114 -5 29 -54
116 -118 207 -10 15 -19 30 -19 33 0 4 -13 25 -29 48 -16 23 -61 94 -101 157
-40 63 -84 133 -99 155 -43 63 -43 68 0 130 21 31 39 58 39 61 0 3 18 31 39
62 21 31 72 109 113 172 184 284 178 274 178 322 0 40 -5 50 -33 75 l-34 30
-348 6 c-192 4 -613 7 -938 7 l-589 0 -32 -32z m1646 -204 c4 -3 -69 -121
-160 -262 -155 -237 -167 -259 -167 -301 1 -42 15 -69 163 -300 89 -139 162
-255 162 -257 0 -2 -328 -4 -730 -4 l-730 0 0 565 0 565 728 0 c401 0 731 -3
734 -6z m-4098 -374 c474 -94 559 -114 620 -143 87 -42 165 -102 211 -165 20
-26 138 -254 263 -507 126 -253 235 -465 243 -471 8 -6 221 -109 474 -229 253
-119 499 -238 547 -263 141 -73 234 -169 253 -259 23 -110 -107 -270 -244
-303 l-49 -12 -219 104 c-120 57 -397 189 -617 294 -269 127 -411 200 -437
224 -21 19 -129 175 -239 345 -111 171 -217 325 -236 343 -45 43 -98 45 -142
4 -17 -16 -33 -40 -36 -53 -3 -13 -44 -321 -91 -683 -47 -363 -86 -661 -88
-663 -2 -1 -89 6 -193 17 -392 41 -859 90 -1159 120 -170 17 -315 33 -322 35
-14 5 40 184 234 768 113 341 150 441 166 452 12 7 92 46 177 85 85 39 166 83
180 96 35 34 36 111 1 148 -50 53 -36 57 -788 -194 -384 -128 -710 -239 -724
-247 -19 -11 -114 -178 -350 -610 -225 -412 -337 -608 -365 -638 -98 -102
-280 -99 -381 7 -65 68 -91 182 -62 267 7 18 160 304 341 634 213 389 343 615
367 639 34 35 278 162 676 353 61 29 304 148 540 265 237 116 484 238 550 270
218 107 215 107 899 -30z m-5260 -1544 c41 -8 106 -28 143 -44 37 -16 336
-190 663 -387 l595 -357 125 -34 c163 -44 165 -46 191 -96 76 -149 300 -264
470 -242 33 4 49 3 49 -4 0 -17 -55 -42 -92 -42 -18 0 -196 29 -394 65 l-362
64 -328 160 c-346 170 -372 178 -433 146 -18 -9 -56 -58 -104 -132 -452 -712
-669 -1049 -678 -1051 -20 -7 -1159 333 -1157 345 2 7 134 208 293 447 l290
435 130 57 c143 62 169 81 186 131 15 46 -12 101 -63 126 -48 24 -38 27 -393
-129 l-280 -122 -189 -199 c-104 -109 -259 -271 -343 -360 -169 -178 -190
-191 -253 -158 -38 20 -64 75 -56 119 4 22 68 100 218 266 384 427 497 549
543 580 69 47 824 382 914 404 111 29 207 32 315 12z m4296 -997 c272 -28 653
-67 845 -88 l350 -36 298 -765 c163 -421 306 -792 317 -825 20 -59 21 -77 18
-1120 l-3 -1060 -28 -57 c-35 -72 -110 -140 -185 -168 -79 -30 -195 -25 -267
12 -64 34 -128 100 -157 163 l-23 50 -5 935 -5 935 -182 425 c-99 234 -211
495 -247 580 l-66 154 26 167 c23 153 24 170 10 203 -30 71 -129 86 -178 28
-18 -22 -74 -217 -252 -888 -126 -472 -236 -877 -246 -899 -12 -28 -227 -259
-697 -750 -718 -750 -717 -748 -832 -775 -154 -36 -328 52 -397 203 -25 54
-29 74 -29 152 0 148 -19 123 618 798 308 325 566 602 574 614 11 17 16 62 19
170 29 1097 55 1486 115 1743 40 172 35 162 77 156 20 -3 260 -29 532 -57z
m-5030 -1029 l585 -172 435 -225 c519 -270 519 -269 606 -377 36 -45 695
-1119 738 -1203 22 -45 20 -118 -5 -171 -58 -120 -241 -137 -321 -29 -13 18
-185 287 -381 598 -196 311 -367 574 -379 586 -13 11 -201 94 -418 183 -217
89 -487 201 -600 248 -229 95 -271 104 -314 63 -49 -46 -48 -55 26 -521 56
-355 68 -447 63 -503 -12 -129 -52 -225 -152 -367 -33 -47 -187 -272 -343
-500 -155 -228 -292 -426 -304 -438 -53 -59 -147 -83 -224 -58 -111 37 -176
161 -141 267 7 19 164 278 350 576 258 412 339 549 339 573 0 17 -24 113 -54
213 -30 100 -72 245 -95 322 -22 77 -63 217 -90 310 -75 256 -84 310 -84 470
0 132 14 235 44 331 l10 31 62 -17 c34 -10 325 -95 647 -190z"/>
<path d="M6450 12046 c-211 -63 -384 -204 -478 -391 -51 -101 -68 -159 -81
-264 -18 -162 11 -322 85 -461 95 -178 240 -300 441 -372 84 -30 95 -32 243
-32 176 0 225 11 375 87 112 58 244 189 309 309 118 217 127 478 26 703 -94
208 -273 356 -519 429 -85 25 -304 21 -401 -8z m339 -211 c190 -45 352 -200
407 -390 21 -73 23 -201 5 -275 -70 -286 -361 -475 -641 -416 -368 77 -559
472 -387 801 41 78 154 191 233 233 114 60 255 77 383 47z"/>
</g>
</svg>
